# Blender v3.1.2 OBJ File: 'shelving_unit.blend'
# www.blender.org
o shelving_unit
v 0.455000 0.910000 -0.150000
v 0.455000 0.910000 0.150000
v -0.455000 0.910000 -0.150000
v -0.455000 0.910000 0.150000
v 0.455000 0.900000 -0.150000
v 0.455000 0.900000 0.150000
v -0.455000 0.900000 0.150000
v -0.455000 0.900000 -0.150000
v 0.455000 0.900000 -0.150000
v 0.455000 0.900000 0.150000
v 0.445000 0.900000 -0.150000
v 0.445000 0.900000 0.150000
v 0.455000 0.010000 0.150000
v 0.445000 0.010000 -0.150000
v 0.445000 0.010000 0.150000
v 0.455000 0.010000 -0.150000
v 0.455000 -0.000000 -0.150000
v 0.455000 -0.000000 0.150000
v -0.455000 -0.000000 -0.150000
v -0.455000 -0.000000 0.150000
v 0.455000 0.010000 0.150000
v -0.455000 0.010000 0.150000
v -0.455000 0.010000 -0.150000
v 0.455000 0.010000 -0.150000
v 0.154000 0.900000 -0.150000
v 0.154000 0.900000 0.150000
v 0.144000 0.900000 -0.150000
v 0.144000 0.900000 0.150000
v 0.154000 0.010000 0.150000
v 0.144000 0.010000 -0.150000
v 0.144000 0.010000 0.150000
v 0.154000 0.010000 -0.150000
v -0.143333 0.900000 -0.150000
v -0.143333 0.900000 0.150000
v -0.153333 0.900000 -0.150000
v -0.153333 0.900000 0.150000
v -0.143333 0.010000 0.150000
v -0.153333 0.010000 -0.150000
v -0.153333 0.010000 0.150000
v -0.143333 0.010000 -0.150000
v -0.445000 0.900000 -0.150000
v -0.445000 0.900000 0.150000
v -0.455000 0.900000 -0.150000
v -0.455000 0.900000 0.150000
v -0.445000 0.010000 0.150000
v -0.455000 0.010000 -0.150000
v -0.455000 0.010000 0.150000
v -0.445000 0.010000 -0.150000
v 0.445000 0.296000 -0.150000
v 0.445000 0.296000 0.150000
v 0.154000 0.296000 -0.150000
v 0.154000 0.296000 0.150000
v 0.445000 0.306000 0.150000
v 0.154000 0.306000 0.150000
v 0.154000 0.306000 -0.150000
v 0.445000 0.306000 -0.150000
v 0.144000 0.296000 -0.150000
v 0.144000 0.296000 0.150000
v -0.143333 0.296000 -0.150000
v -0.143333 0.296000 0.150000
v 0.144000 0.306000 0.150000
v -0.143333 0.306000 0.150000
v -0.143333 0.306000 -0.150000
v 0.144000 0.306000 -0.150000
v -0.153333 0.296000 -0.150000
v -0.153333 0.296000 0.150000
v -0.445000 0.296000 -0.150000
v -0.445000 0.296000 0.150000
v -0.153333 0.306000 0.150000
v -0.445000 0.306000 0.150000
v -0.445000 0.306000 -0.150000
v -0.153333 0.306000 -0.150000
v 0.445000 0.592000 -0.150000
v 0.445000 0.592000 0.150000
v 0.154000 0.592000 -0.150000
v 0.154000 0.592000 0.150000
v 0.445000 0.602000 0.150000
v 0.154000 0.602000 0.150000
v 0.154000 0.602000 -0.150000
v 0.445000 0.602000 -0.150000
v 0.144000 0.592000 -0.150000
v 0.144000 0.592000 0.150000
v -0.143333 0.592000 -0.150000
v -0.143333 0.592000 0.150000
v 0.144000 0.602000 0.150000
v -0.143333 0.602000 0.150000
v -0.143333 0.602000 -0.150000
v 0.144000 0.602000 -0.150000
v -0.153333 0.592000 -0.150000
v -0.153333 0.592000 0.150000
v -0.445000 0.592000 -0.150000
v -0.445000 0.592000 0.150000
v -0.153333 0.602000 0.150000
v -0.445000 0.602000 0.150000
v -0.445000 0.602000 -0.150000
v -0.153333 0.602000 -0.150000
vt 0.649773 0.004446
vt 0.649773 0.008461
vt 0.529345 0.008461
vt 0.529345 0.004446
vt 0.529345 0.377772
vt 0.529345 0.373758
vt 0.649773 0.373758
vt 0.649773 0.377772
vt 0.522970 0.008420
vt 0.522970 0.373717
vt 0.656148 0.373799
vt 0.656148 0.008502
vt 0.664994 0.758484
vt 0.664994 0.386665
vt 0.787571 0.386665
vt 0.787571 0.758483
vt 0.385733 0.737420
vt 0.385733 0.375412
vt 0.392052 0.375380
vt 0.392052 0.737388
vt 0.943383 0.004446
vt 0.943383 0.296218
vt 0.938290 0.296244
vt 0.938290 0.004472
vt 0.263708 0.737420
vt 0.263708 0.375412
vt 0.514077 0.737388
vt 0.514077 0.375380
vt 0.522970 0.386665
vt 0.529343 0.386706
vt 0.529343 0.751873
vt 0.522970 0.751832
vt 0.414873 0.868890
vt 0.410787 0.868890
vt 0.410787 0.746313
vt 0.414873 0.746313
vt 0.649728 0.386706
vt 0.649728 0.751873
vt 0.535949 0.760807
vt 0.540035 0.760807
vt 0.540035 0.883384
vt 0.535949 0.883384
vt 0.656101 0.751914
vt 0.656101 0.386748
vt 0.665041 0.376265
vt 0.665041 0.004446
vt 0.787619 0.004446
vt 0.787619 0.376265
vt 0.126472 0.366487
vt 0.126472 0.004479
vt 0.132790 0.004447
vt 0.132790 0.366454
vt 0.929622 0.386665
vt 0.929622 0.678437
vt 0.924529 0.678463
vt 0.924529 0.386691
vt 0.004446 0.366487
vt 0.004447 0.004479
vt 0.254815 0.366454
vt 0.254815 0.004446
vt 0.385733 0.366487
vt 0.385733 0.004479
vt 0.392052 0.004446
vt 0.392052 0.366454
vt 0.929397 0.004446
vt 0.929397 0.296219
vt 0.924305 0.296245
vt 0.924305 0.004472
vt 0.263708 0.366487
vt 0.263708 0.004479
vt 0.514077 0.366454
vt 0.514077 0.004446
vt 0.126472 0.737420
vt 0.126472 0.375412
vt 0.132790 0.375380
vt 0.132790 0.737388
vt 0.943607 0.386665
vt 0.943607 0.678437
vt 0.938515 0.678463
vt 0.938515 0.386691
vt 0.004447 0.737420
vt 0.004446 0.375412
vt 0.254815 0.737388
vt 0.254815 0.375380
vt 0.600843 0.760807
vt 0.604929 0.760807
vt 0.604929 0.879706
vt 0.600843 0.879706
vt 0.436745 0.746313
vt 0.440831 0.746313
vt 0.440831 0.868890
vt 0.436745 0.868890
vt 0.004447 0.746313
vt 0.123347 0.746313
vt 0.123347 0.868890
vt 0.004447 0.868890
vt 0.427852 0.868890
vt 0.423766 0.868890
vt 0.423766 0.746313
vt 0.427852 0.746313
vt 0.004447 0.872976
vt 0.123347 0.872976
vt 0.123346 0.995554
vt 0.004446 0.995554
vt 0.626801 0.760807
vt 0.630887 0.760807
vt 0.630887 0.878210
vt 0.626801 0.878210
vt 0.462703 0.746313
vt 0.466789 0.746313
vt 0.466788 0.868890
vt 0.462703 0.868890
vt 0.375936 0.995553
vt 0.258534 0.995553
vt 0.258534 0.872976
vt 0.375936 0.872976
vt 0.453810 0.868890
vt 0.449724 0.868890
vt 0.449724 0.746313
vt 0.453810 0.746313
vt 0.375936 0.868890
vt 0.258534 0.868890
vt 0.258534 0.746313
vt 0.375936 0.746313
vt 0.574885 0.760807
vt 0.578971 0.760807
vt 0.578971 0.879981
vt 0.574885 0.879981
vt 0.522970 0.760807
vt 0.527056 0.760807
vt 0.527056 0.883384
vt 0.522970 0.883384
vt 0.796464 0.386665
vt 0.915637 0.386665
vt 0.915636 0.509243
vt 0.796464 0.509243
vt 0.561906 0.760807
vt 0.565992 0.760807
vt 0.565992 0.883384
vt 0.561906 0.883384
vt 0.796464 0.513329
vt 0.915636 0.513329
vt 0.915637 0.635906
vt 0.796464 0.635906
vt 0.617908 0.879706
vt 0.613822 0.879706
vt 0.613822 0.760807
vt 0.617908 0.760807
vt 0.553013 0.883384
vt 0.548928 0.883384
vt 0.548927 0.760807
vt 0.553013 0.760807
vt 0.915412 0.253687
vt 0.796512 0.253687
vt 0.796512 0.131110
vt 0.915412 0.131110
vt 0.488660 0.746313
vt 0.492746 0.746313
vt 0.492746 0.868890
vt 0.488660 0.868890
vt 0.915412 0.127024
vt 0.796512 0.127024
vt 0.796512 0.004446
vt 0.915412 0.004447
vt 0.639780 0.760807
vt 0.643866 0.760807
vt 0.643866 0.878210
vt 0.639780 0.878210
vt 0.505725 0.868890
vt 0.501639 0.868890
vt 0.501639 0.746313
vt 0.505725 0.746313
vt 0.249642 0.995554
vt 0.132239 0.995554
vt 0.132240 0.872976
vt 0.249642 0.872976
vt 0.475681 0.746313
vt 0.479767 0.746313
vt 0.479767 0.868890
vt 0.475681 0.868890
vt 0.249642 0.868890
vt 0.132240 0.868890
vt 0.132240 0.746313
vt 0.249642 0.746313
vt 0.591950 0.879978
vt 0.587864 0.879978
vt 0.587864 0.760807
vt 0.591950 0.760807
vt 0.397808 0.746313
vt 0.401894 0.746313
vt 0.401894 0.868890
vt 0.397808 0.868890
vt 0.915637 0.894040
vt 0.796464 0.894040
vt 0.796464 0.771462
vt 0.915636 0.771462
vt 0.388915 0.868893
vt 0.384829 0.868893
vt 0.384829 0.746313
vt 0.388915 0.746313
vt 0.915636 0.767376
vt 0.796464 0.767376
vt 0.796464 0.644799
vt 0.915637 0.644799
vn 1.0000 0.0000 0.0000
vn -1.0000 0.0000 -0.0000
vn -0.0000 0.0000 1.0000
vn 0.0000 0.0000 -1.0000
vn 0.0000 1.0000 0.0000
vn 0.0000 -1.0000 0.0000
s off
f 5/1/1 1/2/1 2/3/1 6/4/1
f 7/5/2 4/6/2 3/7/2 8/8/2
f 6/9/3 2/3/3 4/6/3 7/10/3
f 8/11/4 3/7/4 1/2/4 5/12/4
f 4/6/5 2/3/5 1/2/5 3/7/5
f 8/13/6 5/14/6 6/15/6 7/16/6
f 13/17/3 10/18/3 12/19/3 15/20/3
f 14/21/4 11/22/4 9/23/4 16/24/4
f 16/25/1 9/26/1 10/18/1 13/17/1
f 14/27/2 15/20/2 12/19/2 11/28/2
f 19/29/4 23/30/4 24/31/4 17/32/4
f 17/33/1 24/34/1 21/35/1 18/36/1
f 24/31/5 23/30/5 22/37/5 21/38/5
f 20/39/2 22/40/2 23/41/2 19/42/2
f 18/43/3 21/38/3 22/37/3 20/44/3
f 18/45/6 20/46/6 19/47/6 17/48/6
f 29/49/3 26/50/3 28/51/3 31/52/3
f 30/53/4 27/54/4 25/55/4 32/56/4
f 32/57/1 25/58/1 26/50/1 29/49/1
f 30/59/2 31/52/2 28/51/2 27/60/2
f 37/61/3 34/62/3 36/63/3 39/64/3
f 38/65/4 35/66/4 33/67/4 40/68/4
f 40/69/1 33/70/1 34/62/1 37/61/1
f 38/71/2 39/64/2 36/63/2 35/72/2
f 45/73/3 42/74/3 44/75/3 47/76/3
f 46/77/4 43/78/4 41/79/4 48/80/4
f 48/81/1 41/82/1 42/74/1 45/73/1
f 46/83/2 47/76/2 44/75/2 43/84/2
f 51/85/4 55/86/4 56/87/4 49/88/4
f 49/89/1 56/90/1 53/91/1 50/92/1
f 56/93/5 55/94/5 54/95/5 53/96/5
f 52/97/2 54/98/2 55/99/2 51/100/2
f 50/101/3 53/96/3 54/95/3 52/102/3
f 50/101/6 52/102/6 51/103/6 49/104/6
f 59/105/4 63/106/4 64/107/4 57/108/4
f 57/109/1 64/110/1 61/111/1 58/112/1
f 64/113/5 63/114/5 62/115/5 61/116/5
f 60/117/2 62/118/2 63/119/2 59/120/2
f 58/121/3 61/116/3 62/115/3 60/122/3
f 58/121/6 60/122/6 59/123/6 57/124/6
f 67/125/4 71/126/4 72/127/4 65/128/4
f 65/129/1 72/130/1 69/131/1 66/132/1
f 72/133/5 71/134/5 70/135/5 69/136/5
f 68/137/2 70/138/2 71/139/2 67/140/2
f 66/141/3 69/136/3 70/135/3 68/142/3
f 66/141/6 68/142/6 67/143/6 65/144/6
f 75/145/4 79/146/4 80/147/4 73/148/4
f 73/149/1 80/150/1 77/151/1 74/152/1
f 80/153/5 79/154/5 78/155/5 77/156/5
f 76/157/2 78/158/2 79/159/2 75/160/2
f 74/161/3 77/156/3 78/155/3 76/162/3
f 74/161/6 76/162/6 75/163/6 73/164/6
f 83/165/4 87/166/4 88/167/4 81/168/4
f 81/169/1 88/170/1 85/171/1 82/172/1
f 88/173/5 87/174/5 86/175/5 85/176/5
f 84/177/2 86/178/2 87/179/2 83/180/2
f 82/181/3 85/176/3 86/175/3 84/182/3
f 82/181/6 84/182/6 83/183/6 81/184/6
f 91/185/4 95/186/4 96/187/4 89/188/4
f 89/189/1 96/190/1 93/191/1 90/192/1
f 96/193/5 95/194/5 94/195/5 93/196/5
f 92/197/2 94/198/2 95/199/2 91/200/2
f 90/201/3 93/196/3 94/195/3 92/202/3
f 90/201/6 92/202/6 91/203/6 89/204/6
