# Blender v3.1.2 OBJ File: 'poster.blend'
# www.blender.org
o poster
v -0.326373 0.262037 -0.010271
v -0.325646 0.093579 -0.009259
v -0.324909 -0.101348 -0.000530
v -0.324109 -0.301564 0.002863
v -0.323565 -0.434688 -0.011249
v -0.277586 0.262218 -0.008550
v -0.276855 0.093757 -0.007550
v -0.276119 -0.101169 0.000622
v -0.275345 -0.301383 0.004105
v -0.273843 -0.433260 -0.010780
v -0.141540 0.262718 -0.004671
v -0.140799 0.094256 -0.003743
v -0.140065 -0.100670 0.003160
v -0.139336 -0.300873 0.008143
v -0.138667 -0.438709 -0.001159
v -0.001101 0.263231 -0.004534
v -0.000368 0.094771 -0.003561
v 0.000366 -0.100153 0.003328
v 0.001068 -0.300356 0.011604
v 0.001837 -0.441613 0.002633
v 0.137995 0.263741 -0.004655
v 0.138722 0.095280 -0.003713
v 0.139461 -0.099641 0.003175
v 0.140177 -0.299853 0.011876
v 0.140881 -0.436607 -0.000970
v 0.275391 0.264244 -0.008538
v 0.276113 0.095784 -0.007544
v 0.276851 -0.099134 0.000620
v 0.277581 -0.299362 0.011385
v 0.278305 -0.429555 -0.009703
v -0.326902 0.428301 -0.010649
v -0.278110 0.428482 -0.010037
v -0.142146 0.433420 -0.007445
v -0.001708 0.434296 -0.006051
v 0.137362 0.437013 -0.007432
v 0.274669 0.441615 -0.010131
v -0.278261 0.456965 -0.009797
v -0.142220 0.460030 -0.007812
v -0.001801 0.458694 -0.006184
v 0.137145 0.459196 -0.007726
v 0.267252 0.461079 -0.010241
v -0.291153 -0.427201 -0.010800
v -0.291603 -0.301445 0.003691
v -0.292382 -0.101228 0.000238
v -0.293118 0.093699 -0.008120
v -0.293848 0.262158 -0.009123
v -0.294369 0.428421 -0.010241
v -0.308265 -0.433531 -0.010921
v -0.307855 -0.301504 0.003277
v -0.308648 -0.101288 -0.000146
v -0.309381 0.093638 -0.008689
v -0.310120 0.262098 -0.009697
v -0.310636 0.428360 -0.010445
v 0.310816 -0.430405 -0.010947
v 0.310102 -0.299246 0.011414
v 0.309377 -0.099013 -0.000147
v 0.308641 0.095903 -0.008684
v 0.307918 0.264362 -0.009686
v 0.307194 0.441827 -0.010476
v 0.314583 0.461447 -0.010584
v 0.294764 -0.424122 -0.009922
v 0.293843 -0.299307 0.011399
v 0.293107 -0.099073 0.000237
v 0.292382 0.095844 -0.008114
v 0.291647 0.264303 -0.009112
v 0.291030 0.435516 -0.010252
v 0.300590 0.451907 -0.010431
v 0.290977 0.447034 -0.010327
v 0.281459 0.450768 -0.010550
v 0.277907 0.461198 -0.010074
v -0.274649 -0.501481 -0.010279
v -0.138609 -0.500983 -0.005518
v 0.001833 -0.500463 -0.001930
v 0.140941 -0.499961 -0.005457
v 0.278318 -0.499459 -0.010851
v 0.294572 -0.499396 -0.010851
v 0.310806 -0.499331 -0.010449
v -0.323610 -0.451812 -0.011204
v -0.323634 -0.468866 -0.010036
v -0.300730 -0.461683 -0.011373
v -0.304839 -0.451635 -0.010579
v -0.315478 -0.451813 -0.011520
v -0.308337 -0.469829 -0.011136
v -0.273926 -0.469561 -0.011066
v -0.281258 -0.461379 -0.011060
v -0.291052 -0.465408 -0.011097
v -0.291037 -0.475880 -0.011101
v -0.266707 -0.451307 -0.011072
v -0.138586 -0.455792 -0.004271
v -0.138748 -0.472871 -0.005869
v 0.001789 -0.458683 -0.000542
v 0.001746 -0.475730 -0.002199
v 0.140709 -0.453674 -0.004081
v 0.140781 -0.470722 -0.005702
v 0.277052 -0.463803 -0.011844
v 0.272115 -0.446536 -0.010509
v 0.293932 -0.446929 -0.009676
v 0.283462 -0.446758 -0.010071
v 0.286349 -0.454286 -0.010512
v 0.293548 -0.457570 -0.010436
v 0.304473 -0.447310 -0.010785
v 0.301250 -0.454632 -0.010980
v 0.315743 -0.447665 -0.011501
v 0.309550 -0.464640 -0.011760
v -0.300888 -0.441671 -0.010541
v -0.291134 -0.437714 -0.010306
v -0.281460 -0.441412 -0.010441
v -0.277272 -0.451463 -0.010738
v 0.294312 -0.436525 -0.009748
v 0.286645 -0.439442 -0.010086
v 0.301437 -0.439588 -0.010182
v -0.291131 -0.440942 -0.010150
v -0.298632 -0.444181 -0.010436
v -0.301583 -0.451519 -0.010189
v -0.291094 -0.451394 -0.009296
v -0.280503 -0.451452 -0.010351
v -0.283800 -0.443925 -0.010345
v -0.291056 -0.462152 -0.010377
v -0.283491 -0.458801 -0.010339
v -0.298400 -0.459125 -0.010738
v 0.279541 -0.446724 -0.010145
v 0.283141 -0.457615 -0.011347
v 0.308356 -0.447476 -0.011514
v 0.304108 -0.458127 -0.011614
v 0.304672 -0.436430 -0.010677
v 0.294470 -0.432258 -0.010031
v 0.283762 -0.436059 -0.010137
v 0.293390 -0.461930 -0.011289
v 0.290893 0.471280 -0.009514
v 0.283323 0.468563 -0.009802
v 0.281090 0.461229 -0.009536
v 0.290926 0.461254 -0.008614
v 0.299526 0.461262 -0.009775
v 0.298278 0.468834 -0.009733
v 0.290959 0.450719 -0.009990
v 0.298493 0.454846 -0.010126
v 0.283623 0.453692 -0.010057
v 0.302701 0.461302 -0.010498
v -0.326673 0.490105 -0.006655
v -0.311021 0.491623 -0.009953
v -0.294622 0.496105 -0.009733
v -0.294544 0.487626 -0.009923
v -0.304359 0.483901 -0.009769
v -0.327044 0.456780 -0.010649
v -0.326978 0.474106 -0.009581
v -0.307848 0.474216 -0.010564
v -0.315754 0.474265 -0.010599
v -0.310784 0.456842 -0.010527
v -0.304143 0.464435 -0.010169
v -0.294481 0.474250 -0.009164
v -0.294518 0.484996 -0.009914
v -0.302342 0.481763 -0.009711
v -0.305395 0.474198 -0.009904
v -0.294538 0.451658 -0.009890
v -0.302095 0.466779 -0.009708
v -0.294452 0.463877 -0.009576
v -0.294472 0.460991 -0.010036
v -0.285070 0.464693 -0.009697
v -0.287173 0.467084 -0.009383
v -0.284165 0.474291 -0.009810
v -0.287422 0.481861 -0.009771
v -0.142265 0.489800 -0.008542
v -0.001825 0.490270 -0.006916
v 0.137271 0.490780 -0.008511
v 0.274648 0.491281 -0.010557
v -0.142139 0.479256 -0.008248
v -0.001825 0.480134 -0.006626
v 0.137280 0.480596 -0.008219
v 0.274660 0.480701 -0.010461
v 0.307187 0.480907 -0.010582
v 0.307160 0.491372 -0.010341
v 0.300433 0.471768 -0.010253
v 0.290907 0.491334 -0.010588
v 0.290818 0.487011 -0.010573
v 0.281227 0.471510 -0.010269
v 0.290876 0.474975 -0.010082
v -0.278329 0.490943 -0.010572
v -0.285273 0.484003 -0.010454
v -0.273201 0.474442 -0.010408
v -0.281576 0.474327 -0.010446
v 0.293090 -0.470078 -0.011789
v -0.323394 -0.501647 -0.007089
v -0.290915 -0.497465 -0.011140
v -0.307140 -0.501589 -0.009301
v -0.299016 -0.501561 -0.009790
v -0.290902 -0.501537 -0.010279
v 0.327064 -0.430836 -0.011303
v 0.326366 -0.299187 0.011426
v 0.325637 -0.098953 -0.000531
v 0.324909 0.095963 -0.009254
v 0.324174 0.264422 -0.010259
v 0.323447 0.442079 -0.010643
v 0.323450 0.461381 -0.010645
v 0.327046 -0.499268 -0.007276
v 0.326434 -0.447943 -0.011485
v 0.325804 -0.465059 -0.011310
v -0.326838 0.498188 -0.003204
v -0.311175 0.499704 -0.007193
v -0.294559 0.499235 -0.009720
v -0.142265 0.499836 -0.008830
v -0.001827 0.500351 -0.007204
v 0.137265 0.500861 -0.008784
v 0.274645 0.501361 -0.010644
v 0.323444 0.481186 -0.010648
v -0.307302 -0.497290 -0.009549
v 0.323418 0.491414 -0.009797
v 0.307143 0.501440 -0.009795
v -0.323426 -0.497215 -0.007487
v 0.290901 0.501415 -0.010646
v -0.278303 0.499334 -0.010645
v 0.323396 0.501469 -0.005882
vt 0.460248 0.758404
vt 0.460446 0.593756
vt 0.594797 0.593871
vt 0.594574 0.758513
vt 0.038198 0.990120
vt 0.021731 0.990824
vt 0.022139 0.982531
vt 0.038106 0.987049
vt 0.610471 0.758526
vt 0.610709 0.593888
vt 0.626608 0.593906
vt 0.626382 0.758540
vt 0.626314 0.980391
vt 0.626339 0.990245
vt 0.610448 0.990250
vt 0.610425 0.980400
vt 0.460234 0.038924
vt 0.324198 0.035106
vt 0.324144 0.010931
vt 0.460105 0.010355
vt 0.037856 0.035913
vt 0.020961 0.041894
vt 0.021825 0.014991
vt 0.037924 0.014797
vt 0.642143 0.951032
vt 0.642195 0.970378
vt 0.626307 0.970156
vt 0.633481 0.951123
vt 0.022228 0.948664
vt 0.017424 0.965693
vt 0.006410 0.965616
vt 0.006336 0.948650
vt 0.187210 0.593668
vt 0.187061 0.758315
vt 0.054050 0.758329
vt 0.054166 0.593684
vt 0.187196 0.072144
vt 0.324479 0.068795
vt 0.324466 0.207064
vt 0.187317 0.207107
vt 0.054322 0.402878
vt 0.187300 0.402852
vt 0.054159 0.990124
vt 0.054097 0.981923
vt 0.187100 0.980282
vt 0.187132 0.990093
vt 0.054338 0.207105
vt 0.054833 0.077505
vt 0.324549 0.402901
vt 0.460355 0.206873
vt 0.460515 0.402909
vt 0.324480 0.593695
vt 0.324312 0.758357
vt 0.460046 0.949442
vt 0.324268 0.949382
vt 0.324278 0.925541
vt 0.460188 0.927763
vt 0.059053 0.965775
vt 0.054031 0.948696
vt 0.187047 0.951181
vt 0.187189 0.969974
vt 0.594735 0.206738
vt 0.594850 0.403044
vt 0.460251 0.970358
vt 0.594517 0.970063
vt 0.594538 0.980399
vt 0.460278 0.980313
vt 0.594405 0.931859
vt 0.006453 0.593699
vt 0.022359 0.593693
vt 0.022234 0.758331
vt 0.006340 0.758332
vt 0.022561 0.207129
vt 0.021197 0.077395
vt 0.037957 0.083505
vt 0.038450 0.207115
vt 0.038190 0.920837
vt 0.038147 0.758331
vt 0.054084 0.920844
vt 0.595035 0.077863
vt 0.460425 0.072618
vt 0.642279 0.758553
vt 0.642083 0.932174
vt 0.626199 0.931977
vt 0.611160 0.083024
vt 0.610630 0.206740
vt 0.038263 0.593690
vt 0.038427 0.402884
vt 0.626535 0.206751
vt 0.642432 0.206760
vt 0.642547 0.403108
vt 0.626651 0.403087
vt 0.187028 0.925173
vt 0.610743 0.403066
vt 0.587224 0.950907
vt 0.022289 0.920828
vt 0.593535 0.044360
vt 0.588858 0.061306
vt 0.460249 0.055660
vt 0.006391 0.920820
vt 0.022527 0.402887
vt 0.006675 0.207146
vt 0.006235 0.076321
vt 0.594465 0.009516
vt 0.006633 0.402891
vt 0.642517 0.593923
vt 0.610377 0.925858
vt 0.324349 0.980245
vt 0.324316 0.970337
vt 0.642693 0.076179
vt 0.626816 0.076731
vt 0.187076 0.055178
vt 0.324336 0.051840
vt 0.641938 0.059463
vt 0.631492 0.059824
vt 0.625288 0.043290
vt 0.641176 0.042735
vt 0.324380 0.990100
vt 0.460307 0.990166
vt 0.594566 0.990248
vt 0.619781 0.941848
vt 0.610358 0.937120
vt 0.186800 0.038421
vt 0.186877 0.010954
vt 0.601062 0.940784
vt 0.597641 0.950996
vt 0.609151 0.038125
vt 0.610351 0.009440
vt 0.626223 0.009351
vt 0.005915 0.990077
vt 0.006565 0.981527
vt 0.005974 0.042869
vt 0.014073 0.059542
vt 0.006116 0.059577
vt 0.054616 0.042033
vt 0.053832 0.010825
vt 0.061740 0.059851
vt 0.028423 0.049819
vt 0.024509 0.059692
vt 0.047480 0.050057
vt 0.037880 0.046162
vt 0.610135 0.060791
vt 0.599943 0.061022
vt 0.602699 0.053653
vt 0.609691 0.050438
vt 0.620430 0.060292
vt 0.617243 0.053180
vt 0.028383 0.069413
vt 0.037929 0.073226
vt 0.047360 0.069581
vt 0.051413 0.059741
vt 0.610600 0.070904
vt 0.603096 0.068132
vt 0.617527 0.067855
vt 0.037918 0.070072
vt 0.030576 0.066955
vt 0.027712 0.059799
vt 0.037910 0.059894
vt 0.048230 0.059776
vt 0.045065 0.067139
vt 0.037903 0.049425
vt 0.045267 0.052648
vt 0.030737 0.052344
vt 0.596119 0.061081
vt 0.599520 0.050364
vt 0.624282 0.060066
vt 0.620031 0.049704
vt 0.620753 0.070903
vt 0.610804 0.075079
vt 0.600310 0.071461
vt 0.609505 0.046101
vt 0.610341 0.960760
vt 0.602957 0.958166
vt 0.600798 0.951024
vt 0.610334 0.951031
vt 0.618709 0.950997
vt 0.617521 0.958361
vt 0.610351 0.940737
vt 0.617731 0.944734
vt 0.603198 0.943652
vt 0.621885 0.951017
vt 0.038199 0.978712
vt 0.028598 0.975056
vt 0.025135 0.965612
vt 0.028744 0.956066
vt 0.037947 0.010729
vt 0.038225 0.965626
vt 0.038215 0.976133
vt 0.030562 0.972968
vt 0.027609 0.965594
vt 0.038101 0.943552
vt 0.030783 0.958365
vt 0.038223 0.955519
vt 0.038185 0.952666
vt 0.047394 0.956278
vt 0.045327 0.958632
vt 0.048271 0.965655
vt 0.045122 0.973029
vt 0.005928 0.015045
vt 0.642213 0.980403
vt 0.642659 0.990937
vt 0.619674 0.961242
vt 0.610324 0.976176
vt 0.600900 0.961067
vt 0.610339 0.964403
vt 0.047289 0.975158
vt 0.050877 0.965701
vt 0.021952 0.010778
vt 0.029909 0.010768
vt 0.005915 0.010696
vt 0.642395 0.009063
vn 0.0137 0.0188 0.9997
vn 0.0119 -0.0023 0.9999
vn 0.0350 0.0029 0.9994
vn 0.0322 0.0125 0.9994
vn 0.0946 -0.1182 0.9885
vn 0.2060 -0.2973 0.9323
vn 0.1811 -0.3018 0.9360
vn 0.0715 -0.1189 0.9903
vn 0.0323 0.0070 0.9995
vn 0.0350 0.0054 0.9994
vn 0.0350 0.0064 0.9994
vn 0.0323 0.0047 0.9995
vn -0.0683 -0.1024 0.9924
vn -0.1253 -0.1025 0.9868
vn -0.0241 -0.0085 0.9997
vn -0.0091 -0.0063 0.9999
vn 0.0482 -0.0483 0.9977
vn -0.0001 -0.0559 0.9984
vn -0.0008 0.1904 0.9817
vn 0.0424 0.1644 0.9855
vn 0.0087 0.0046 1.0000
vn 0.0496 0.0272 0.9984
vn 0.0740 0.1526 0.9855
vn 0.0136 0.0314 0.9994
vn 0.0071 0.0006 1.0000
vn -0.0027 -0.0317 0.9995
vn 0.0040 -0.0066 1.0000
vn 0.0104 0.0011 0.9999
vn -0.0112 -0.0039 0.9999
vn 0.0610 -0.0565 0.9965
vn 0.0972 -0.1143 0.9887
vn 0.0046 -0.0195 0.9998
vn -0.0118 -0.0024 0.9999
vn -0.0140 0.0186 0.9997
vn -0.0323 0.0123 0.9994
vn -0.0351 0.0023 0.9994
vn -0.0567 -0.1353 0.9892
vn 0.0006 -0.1364 0.9907
vn -0.0092 -0.0168 0.9998
vn -0.0351 -0.0288 0.9990
vn -0.0264 0.0629 0.9977
vn -0.0108 0.0649 0.9978
vn 0.0058 0.0138 0.9999
vn -0.0009 0.0136 0.9999
vn -0.0237 0.0259 0.9994
vn -0.0230 0.0270 0.9994
vn -0.0438 -0.0603 0.9972
vn -0.0744 -0.0855 0.9936
vn -0.0029 0.0713 0.9974
vn 0.0147 -0.0408 0.9991
vn 0.0052 0.0792 0.9968
vn 0.0000 -0.0031 1.0000
vn -0.0000 0.0148 0.9999
vn 0.0234 0.0169 0.9996
vn -0.0001 0.0126 0.9999
vn -0.0000 0.0050 1.0000
vn 0.0212 0.0109 0.9997
vn -0.0032 0.0215 0.9998
vn -0.0058 0.0100 0.9999
vn -0.0238 0.0167 0.9996
vn -0.0242 0.0231 0.9994
vn 0.0237 -0.0771 0.9967
vn 0.0206 0.0892 0.9958
vn 0.0236 0.0228 0.9995
vn 0.0034 0.0149 0.9999
vn 0.0034 0.0132 0.9999
vn 0.0230 0.0262 0.9994
vn 0.0131 0.0142 0.9998
vn -0.0351 0.0071 0.9994
vn -0.0350 0.0062 0.9994
vn -0.0323 0.0043 0.9995
vn -0.0323 0.0024 0.9995
vn -0.0149 -0.0726 0.9973
vn -0.0009 -0.0210 0.9998
vn -0.0335 -0.0313 0.9989
vn -0.0369 -0.0726 0.9967
vn -0.0160 -0.0010 0.9999
vn -0.0323 0.0067 0.9995
vn -0.0114 0.0065 0.9999
vn 0.0688 -0.1225 0.9901
vn 0.0555 -0.1431 0.9882
vn 0.0322 0.0030 0.9995
vn 0.0125 0.0039 0.9999
vn 0.0127 0.0066 0.9999
vn 0.0469 -0.0918 0.9947
vn 0.0159 -0.0915 0.9957
vn -0.0350 0.0052 0.9994
vn -0.0264 0.0630 0.9977
vn -0.0025 -0.0932 0.9956
vn -0.0061 -0.0914 0.9958
vn 0.0200 0.0963 0.9952
vn 0.0206 0.0951 0.9953
vn -0.0217 0.0102 0.9997
vn 0.0206 0.0934 0.9954
vn 0.0081 0.0132 0.9999
vn -0.0167 0.0023 0.9999
vn 0.0305 -0.0255 0.9992
vn 0.0470 -0.0911 0.9947
vn 0.0549 -0.1327 0.9896
vn -0.0126 0.0020 0.9999
vn -0.0004 -0.0666 0.9978
vn 0.0164 -0.0393 0.9991
vn 0.0237 0.1553 0.9876
vn -0.0264 0.0631 0.9977
vn 0.0350 0.0070 0.9994
vn 0.0135 0.0098 0.9999
vn -0.0002 0.0283 0.9996
vn -0.0000 0.0232 0.9997
vn 0.0001 -0.0895 0.9960
vn 0.0105 -0.0812 0.9966
vn -0.0534 -0.1310 0.9899
vn 0.0007 -0.1396 0.9902
vn -0.0022 -0.0016 1.0000
vn 0.0033 -0.0150 0.9999
vn -0.0403 0.0143 0.9991
vn -0.0710 0.0590 0.9957
vn -0.0002 0.0282 0.9996
vn 0.0227 0.0258 0.9994
vn 0.0016 0.0130 0.9999
vn 0.0170 -0.0033 0.9999
vn 0.0066 0.0017 1.0000
vn -0.0472 -0.0470 0.9978
vn -0.0433 0.1735 0.9839
vn 0.0015 -0.0043 1.0000
vn -0.0125 0.0036 0.9999
vn -0.0062 -0.0018 1.0000
vn -0.0123 0.1722 0.9850
vn -0.1019 0.1838 0.9777
vn 0.2588 -0.3715 0.8916
vn 0.2405 -0.3735 0.8959
vn 0.0760 0.0633 0.9951
vn 0.0059 0.0089 0.9999
vn 0.0130 0.0337 0.9993
vn -0.0241 -0.0118 0.9996
vn -0.0196 0.1671 0.9857
vn -0.0478 -0.0590 0.9971
vn -0.0273 -0.0217 0.9994
vn -0.0541 -0.0139 0.9984
vn 0.0174 -0.0243 0.9996
vn -0.0050 -0.0162 0.9999
vn 0.0255 -0.0369 0.9990
vn -0.0430 -0.0407 0.9982
vn -0.0583 -0.1057 0.9927
vn 0.0207 -0.1153 0.9931
vn 0.1250 -0.0458 0.9911
vn 0.1129 -0.0926 0.9893
vn -0.0505 0.0216 0.9985
vn -0.0048 0.0357 0.9994
vn 0.0316 0.0163 0.9994
vn 0.0355 -0.0129 0.9993
vn 0.0232 0.0202 0.9995
vn -0.0347 0.0159 0.9993
vn 0.1057 0.0022 0.9944
vn -0.0016 0.0537 0.9986
vn -0.0709 0.0596 0.9957
vn -0.0884 -0.0265 0.9957
vn -0.0043 -0.0095 0.9999
vn 0.0913 -0.0158 0.9957
vn 0.0709 0.0474 0.9964
vn -0.0101 -0.1294 0.9915
vn 0.0891 -0.0981 0.9912
vn -0.0976 -0.1224 0.9877
vn -0.0202 -0.0605 0.9980
vn -0.0336 -0.0892 0.9954
vn 0.0464 -0.0302 0.9985
vn 0.0325 -0.0415 0.9986
vn 0.0609 -0.0178 0.9980
vn 0.0343 -0.0106 0.9994
vn -0.0017 -0.0208 0.9998
vn 0.0000 -0.0688 0.9976
vn 0.0012 0.0944 0.9955
vn -0.0942 0.0872 0.9917
vn -0.1016 -0.0182 0.9947
vn 0.0067 -0.0224 0.9997
vn 0.1288 -0.0203 0.9915
vn 0.1174 0.0672 0.9908
vn 0.0035 -0.1029 0.9947
vn 0.1081 -0.0892 0.9901
vn -0.0858 -0.1100 0.9902
vn 0.0347 0.0000 0.9994
vn 0.1028 -0.0995 0.9897
vn 0.1667 -0.1752 0.9703
vn 0.0232 -0.0041 0.9997
vn 0.0205 -0.0125 0.9997
vn -0.0021 -0.0013 1.0000
vn -0.0005 0.0011 1.0000
vn -0.0516 -0.0180 0.9985
vn -0.0492 0.0013 0.9988
vn -0.0064 0.1847 0.9828
vn -0.0490 -0.0376 0.9981
vn -0.0067 0.0143 0.9999
vn 0.0131 0.0489 0.9987
vn -0.0467 0.0281 0.9985
vn -0.0898 -0.0031 0.9960
vn -0.0180 -0.0072 0.9998
vn -0.0812 -0.0491 0.9955
vn -0.0168 -0.0589 0.9981
vn -0.0228 -0.0183 0.9996
vn -0.0109 -0.0190 0.9998
vn 0.0560 -0.0275 0.9981
vn 0.0955 0.0288 0.9950
vn 0.0758 0.0642 0.9951
vn -0.0344 -0.0175 0.9993
vn 0.1107 0.0733 0.9911
vn -0.0139 -0.0784 0.9968
vn -0.0123 -0.0334 0.9994
vn -0.1069 -0.3403 0.9342
vn -0.2008 -0.3355 0.9204
vn 0.0299 0.0212 0.9993
vn -0.0008 0.0112 0.9999
vn -0.0212 0.0309 0.9993
vn 0.0019 0.0429 0.9991
vn 0.0477 -0.0101 0.9988
vn 0.0450 -0.0247 0.9987
vn 0.0273 0.0166 0.9995
vn 0.0370 0.0272 0.9989
vn 0.0415 0.0375 0.9984
vn 0.1232 0.2403 0.9629
vn 0.0869 0.2665 0.9599
vn 0.1510 0.2219 0.9633
vn -0.1746 0.2297 0.9575
s 1
f 21/1/1 22/2/2 27/3/3 26/4/4
f 199/5/5 198/6/6 140/7/7 141/8/8
f 65/9/9 64/10/10 57/11/11 58/12/12
f 171/13/13 207/14/14 209/15/15 173/16/16
f 94/17/17 92/18/18 73/19/19 74/20/20
f 87/21/21 83/22/22 205/23/23 183/24/24
f 193/25/25 204/26/26 170/27/27 60/28/28
f 148/29/29 147/30/30 145/31/31 144/32/32
f 12/33/33 11/34/34 6/35/35 7/36/36
f 15/37/37 20/38/38 19/39/39 14/40/40
f 12/33/33 7/36/36 8/41/41 13/42/42
f 210/43/43 177/44/44 162/45/45 200/46/46
f 15/37/37 14/40/40 9/47/47 10/48/48
f 18/49/49 19/39/39 24/50/50 23/51/51
f 8/41/41 9/47/47 14/40/40 13/42/42
f 17/52/52 16/53/53 11/34/34 12/33/33
f 40/54/54 39/55/55 34/56/56 35/57/57
f 18/49/49 17/52/52 12/33/33 13/42/42
f 19/39/39 18/49/49 13/42/42 14/40/40
f 18/49/49 23/51/51 22/2/2 17/52/52
f 179/58/58 37/59/59 38/60/60 166/61/61
f 29/62/62 28/63/63 23/51/51 24/50/50
f 22/2/2 21/1/1 16/53/53 17/52/52
f 168/64/64 169/65/65 165/66/66 164/67/67
f 35/57/57 21/1/1 26/4/4 36/68/68
f 2/69/69 51/70/70 52/71/71 1/72/72
f 22/2/2 23/51/51 28/63/63 27/3/3
f 49/73/73 48/74/74 42/75/75 43/76/76
f 26/4/4 27/3/3 64/10/10 65/9/9
f 47/77/77 46/78/78 6/35/35 32/79/79
f 162/45/45 177/44/44 179/58/58 166/61/61
f 30/80/80 29/62/62 24/50/50 25/81/81
f 58/12/12 191/82/82 192/83/83 59/84/84
f 29/62/62 30/80/80 61/85/85 62/86/86
f 45/87/87 44/88/88 8/41/41 7/36/36
f 55/89/89 188/90/90 189/91/91 56/92/92
f 38/60/60 37/59/59 32/79/79 33/93/93
f 64/10/10 63/94/94 56/92/92 57/11/11
f 6/35/35 11/34/34 33/93/93 32/79/79
f 39/55/55 38/60/60 33/93/93 34/56/56
f 16/53/53 34/56/56 33/93/93 11/34/34
f 35/57/57 36/68/68 41/95/95 40/54/54
f 21/1/1 35/57/57 34/56/56 16/53/53
f 53/96/96 52/71/71 46/78/78 47/77/77
f 95/97/97 96/98/98 93/99/99 94/17/17
f 52/71/71 53/96/96 31/100/100 1/72/72
f 43/76/76 42/75/75 10/48/48 9/47/47
f 51/70/70 50/101/88 44/88/88 45/87/87
f 50/101/88 49/73/73 43/76/76 44/88/88
f 48/74/74 49/73/73 4/102/101 5/103/102
f 95/97/97 94/17/17 74/20/20 75/104/103
f 3/105/104 50/101/88 51/70/70 2/69/69
f 57/11/11 190/106/105 191/82/82 58/12/12
f 56/92/92 189/91/91 190/106/105 57/11/11
f 66/107/106 36/68/68 26/4/4 65/9/9
f 164/67/67 163/108/107 167/109/108 168/64/64
f 187/110/109 188/90/90 55/89/89 54/111/110
f 20/38/38 15/37/37 89/112/111 91/113/112
f 195/114/113 103/115/114 104/116/115 196/117/116
f 28/63/63 29/62/62 62/86/86 63/94/94
f 201/118/117 200/46/46 162/45/45 163/108/107
f 202/119/118 201/118/117 163/108/107 164/67/67
f 202/119/118 164/67/67 165/66/66 203/120/119
f 187/110/109 54/111/110 103/115/114 195/114/113
f 27/3/3 28/63/63 63/94/94 64/10/10
f 40/54/54 168/64/64 167/109/108 39/55/55
f 59/84/84 67/121/120 68/122/121 66/107/106
f 93/99/99 91/113/112 92/18/18 94/17/17
f 59/84/84 66/107/106 65/9/9 58/12/12
f 91/113/112 89/112/111 90/123/122 92/18/18
f 92/18/18 90/123/122 72/124/123 73/19/19
f 69/125/124 70/126/125 41/95/95 36/68/68
f 104/116/115 181/127/126 76/128/127 77/129/128
f 140/7/7 198/6/6 197/130/129 139/131/130
f 79/132/131 83/22/22 82/133/132 78/134/133
f 209/15/15 203/120/119 165/66/66 173/16/16
f 90/123/122 84/135/134 71/136/135 72/124/123
f 89/112/111 88/137/136 84/135/134 90/123/122
f 78/134/133 82/133/132 48/74/74 5/103/102
f 163/108/107 162/45/45 166/61/61 167/109/108
f 80/138/137 81/139/138 82/133/132 83/22/22
f 84/135/134 85/140/139 86/141/140 87/21/21
f 96/98/98 30/80/80 25/81/81 93/99/99
f 39/55/55 167/109/108 166/61/61 38/60/60
f 169/65/65 168/64/64 40/54/54 41/95/95
f 97/142/141 98/143/142 99/144/143 100/145/144
f 101/146/145 97/142/141 100/145/144 102/147/146
f 42/75/75 48/74/74 105/148/147 106/149/148
f 10/48/48 107/150/149 108/151/150 88/137/136
f 50/101/88 3/105/104 4/102/101 49/73/73
f 109/152/151 110/153/152 98/143/142 97/142/141
f 101/146/145 111/154/153 109/152/151 97/142/141
f 112/155/154 113/156/155 114/157/156 115/158/157
f 116/159/158 117/160/159 112/155/154 115/158/157
f 118/161/160 119/162/161 116/159/158 115/158/157
f 115/158/157 114/157/156 120/163/162 118/161/160
f 86/141/140 80/138/137 83/22/22 87/21/21
f 88/137/136 108/151/150 85/140/139 84/135/134
f 10/48/48 42/75/75 106/149/148 107/150/149
f 81/139/138 105/148/147 48/74/74 82/133/132
f 98/143/142 121/164/163 122/165/164 99/144/143
f 123/166/165 101/146/145 102/147/146 124/167/166
f 125/168/167 126/169/168 109/152/151 111/154/153
f 110/153/152 127/170/169 121/164/163 98/143/142
f 126/169/168 127/170/169 110/153/152 109/152/151
f 125/168/167 111/154/153 101/146/145 123/166/165
f 124/167/166 102/147/146 100/145/144 128/171/170
f 99/144/143 122/165/164 128/171/170 100/145/144
f 129/172/171 130/173/172 131/174/173 132/175/174
f 133/176/175 134/177/176 129/172/171 132/175/174
f 135/178/177 136/179/178 133/176/175 132/175/174
f 132/175/174 131/174/173 137/180/179 135/178/177
f 68/122/121 69/125/124 36/68/68 66/107/106
f 60/28/28 138/181/180 67/121/120 59/84/84
f 145/31/31 147/30/30 140/7/181 139/131/182
f 210/43/43 199/5/5 141/8/8 177/44/44
f 142/182/183 141/8/184 140/7/185 143/183/186
f 146/184/187 147/30/30 148/29/29 149/185/188
f 71/136/135 183/24/24 186/186/189
f 146/184/187 143/183/190 140/7/181 147/30/30
f 150/187/191 151/188/192 152/189/193 153/190/194
f 37/59/59 154/191/195 47/77/77 32/79/79
f 47/77/77 154/191/195 148/29/29 53/96/96
f 150/187/191 153/190/194 155/192/196 156/193/197
f 157/194/198 154/191/195 37/59/59 158/195/199
f 150/187/191 156/193/197 159/196/200 160/197/201
f 150/187/191 160/197/201 161/198/202 151/188/192
f 149/185/203 148/29/29 154/191/195 157/194/198
f 83/22/22 79/132/131 208/199/204 205/23/23
f 206/200/205 171/13/206 170/27/27 204/26/26
f 206/200/207 211/201/208 207/14/14 171/13/13
f 25/81/81 20/38/38 91/113/112 93/99/99
f 63/94/94 62/86/86 55/89/89 56/92/92
f 52/71/71 51/70/70 45/87/87 46/78/78
f 60/28/28 170/27/27 172/202/209 138/181/180
f 174/203/210 169/65/65 175/204/211 176/205/212
f 148/29/29 144/32/32 31/100/100 53/96/96
f 176/205/212 172/202/209 170/27/27 174/203/210
f 175/204/211 169/65/65 41/95/95 70/126/125
f 181/127/126 95/97/97 75/104/103 76/128/127
f 193/25/25 60/28/28 59/84/84 192/83/83
f 62/86/86 61/85/85 54/111/110 55/89/89
f 178/206/213 177/44/214 141/8/184 142/182/183
f 44/88/88 43/76/76 9/47/47 8/41/41
f 179/58/58 177/44/44 178/206/215 180/207/216
f 158/195/217 37/59/59 179/58/58 180/207/216
f 19/39/39 20/38/38 25/81/81 24/50/50
f 15/37/37 10/48/48 88/137/136 89/112/111
f 46/78/78 45/87/87 7/36/36 6/35/35
f 173/16/16 165/66/66 169/65/65 174/203/210
f 171/13/206 173/16/16 174/203/210 170/27/27
f 151/188/192 142/182/183 143/183/186 152/189/193
f 161/198/202 178/206/213 142/182/183 151/188/192
f 180/207/216 178/206/215 161/198/202 160/197/201
f 159/196/200 158/195/217 180/207/216 160/197/201
f 156/193/197 157/194/198 158/195/199 159/196/200
f 155/192/196 149/185/203 157/194/198 156/193/197
f 153/190/194 146/184/187 149/185/188 155/192/196
f 152/189/193 143/183/190 146/184/187 153/190/194
f 106/149/148 105/148/147 113/156/155 112/155/154
f 107/150/149 106/149/148 112/155/154 117/160/159
f 108/151/150 107/150/149 117/160/159 116/159/158
f 85/140/139 108/151/150 116/159/158 119/162/161
f 86/141/140 85/140/139 119/162/161 118/161/160
f 80/138/137 86/141/140 118/161/160 120/163/162
f 81/139/138 80/138/137 120/163/162 114/157/156
f 113/156/155 105/148/147 81/139/138 114/157/156
f 127/170/169 30/80/80 96/98/98 121/164/163
f 122/165/164 121/164/163 96/98/98 95/97/97
f 128/171/170 122/165/164 95/97/97 181/127/126
f 104/116/115 124/167/166 128/171/170 181/127/126
f 103/115/114 123/166/165 124/167/166 104/116/115
f 54/111/110 125/168/167 123/166/165 103/115/114
f 54/111/110 61/85/85 126/169/168 125/168/167
f 61/85/85 30/80/80 127/170/169 126/169/168
f 138/181/180 172/202/209 134/177/176 133/176/175
f 67/121/120 138/181/180 133/176/175 136/179/178
f 68/122/121 67/121/120 136/179/178 135/178/177
f 135/178/177 137/180/179 69/125/124 68/122/121
f 137/180/179 131/174/173 70/126/125 69/125/124
f 130/173/172 175/204/211 70/126/125 131/174/173
f 176/205/212 175/204/211 130/173/172 129/172/171
f 134/177/176 172/202/209 176/205/212 129/172/171
f 183/24/24 205/23/23 184/208/218 185/209/219
f 205/23/23 208/199/204 182/210/220 184/208/218
f 196/117/116 104/116/115 77/129/128 194/211/221
f 84/135/134 87/21/21 183/24/24 71/136/135
