# Blender v3.1.2 OBJ File: 'mounted_picture_frame.blend'
# www.blender.org
o mounted_picture_frame
v -0.240602 -0.341290 0.014547
v 0.237463 -0.341290 0.014547
v -0.240602 0.316444 0.014547
v 0.237463 0.316444 0.014547
v -0.240602 0.316444 0.000000
v 0.237463 0.316444 0.000000
v -0.240602 -0.341290 -0.000000
v 0.237463 -0.341290 -0.000000
v -0.213634 -0.310416 0.014547
v 0.213634 -0.310416 0.014547
v 0.213634 0.291813 0.014547
v -0.213634 0.291813 0.014547
v -0.213634 -0.310416 0.008936
v -0.213634 0.291813 0.008937
v 0.213634 -0.310416 0.008936
v 0.213634 0.291813 0.008937
v -0.213634 -0.200910 0.014547
v -0.240602 -0.200910 0.014547
v -0.240602 -0.200910 -0.000000
v 0.237463 -0.200910 -0.000000
v 0.237463 -0.200910 0.014547
v 0.213634 -0.200910 0.014547
v 0.213634 -0.200910 0.008936
v -0.213634 -0.200910 0.008936
v -0.213634 0.200910 0.014547
v -0.240602 0.200910 0.014547
v -0.240602 0.200910 0.000000
v 0.237463 0.200910 0.000000
v 0.237463 0.200910 0.014547
v 0.213634 0.200910 0.014547
v 0.213634 0.200910 0.008936
v -0.213634 0.200910 0.008936
v -0.133873 0.316444 0.000000
v -0.133873 0.200910 0.000000
v -0.133873 -0.200910 -0.000000
v -0.133873 -0.341290 -0.000000
v -0.133873 -0.341290 0.014547
v -0.133873 -0.310416 0.014547
v -0.133873 -0.310416 0.008936
v -0.133873 -0.200910 0.008936
v -0.133873 0.200910 0.008936
v -0.133873 0.291813 0.008937
v -0.133873 0.291813 0.014547
v -0.133873 0.316444 0.014547
v 0.133873 0.291813 0.014547
v 0.133873 0.291813 0.008937
v 0.133873 0.200910 0.008936
v 0.133873 -0.200910 0.008936
v 0.133873 -0.310416 0.008936
v 0.133873 -0.310416 0.014547
v 0.133873 -0.341290 0.014547
v 0.133873 -0.341290 -0.000000
v 0.133873 -0.200910 -0.000000
v 0.133873 0.200910 0.000000
v 0.133873 0.316444 0.000000
v 0.133873 0.316444 0.014547
v -0.133873 -0.200910 0.005898
v -0.133873 0.200910 0.005898
v 0.133873 -0.200910 0.005898
v 0.133873 0.200910 0.005898
v -0.000000 0.291813 0.014547
v -0.000000 0.291813 0.008937
v -0.000000 0.200910 0.008936
v -0.000000 -0.200910 0.005898
v -0.000000 0.200910 0.005898
v -0.000000 -0.310416 0.008936
v -0.000000 -0.200910 0.008936
v -0.000000 -0.310416 0.014547
v -0.000000 -0.341290 0.014547
v -0.000000 -0.341290 -0.000000
v -0.000000 -0.200910 -0.000000
v -0.000000 0.200910 0.000000
v -0.000000 0.316444 0.000000
v -0.000000 0.316444 0.014547
v -0.213634 -0.000000 0.014547
v -0.240602 -0.000000 0.014547
v -0.240602 -0.000000 0.000000
v -0.133873 -0.000000 0.000000
v 0.237463 -0.000000 0.000000
v 0.237463 -0.000000 0.014547
v 0.213634 -0.000000 0.014547
v 0.213634 -0.000000 0.008936
v -0.213634 -0.000000 0.008936
v -0.133873 0.000000 0.008936
v 0.133873 -0.000000 0.000000
v 0.133873 -0.000000 0.008936
v -0.133873 0.000000 0.005898
v 0.133873 -0.000000 0.005898
v -0.000000 -0.000000 0.000000
v -0.000000 0.000000 0.005898
vt 0.013271 0.754099
vt 0.013272 0.738179
vt 0.166903 0.738179
vt 0.166903 0.754099
vt 0.013272 0.726289
vt 0.013272 0.710369
vt 0.166903 0.710369
vt 0.166903 0.726289
vt 0.733096 0.888485
vt 0.699307 0.917998
vt 0.579464 0.917998
vt 0.579464 0.888485
vt 0.013503 0.946796
vt 0.130306 0.946796
vt 0.130306 0.962716
vt 0.013503 0.962716
vt 0.306512 0.491181
vt 0.306512 0.426435
vt 0.354290 0.426435
vt 0.354290 0.491181
vt 0.536697 0.974606
vt 0.536697 0.990526
vt 0.419893 0.990526
vt 0.419893 0.974606
vt 0.042785 0.838625
vt 0.013272 0.804836
vt 0.130075 0.804836
vt 0.130075 0.838625
vt 0.008983 0.123644
vt 0.008983 0.003801
vt 0.096274 0.003801
vt 0.096274 0.123644
vt 0.166903 0.850516
vt 0.166903 0.876594
vt 0.047060 0.876594
vt 0.013271 0.850516
vt 0.536465 0.765990
vt 0.506952 0.792946
vt 0.419662 0.792946
vt 0.419661 0.765990
vt 0.133796 0.426435
vt 0.183022 0.426435
vt 0.183022 0.491181
vt 0.133796 0.491181
vt 0.133112 0.674309
vt 0.133112 0.680448
vt 0.013272 0.680448
vt 0.013271 0.674308
vt 0.946426 0.475451
vt 0.946426 0.388158
vt 0.952566 0.388158
vt 0.952566 0.475451
vt 0.672352 0.698479
vt 0.552507 0.698479
vt 0.552507 0.692339
vt 0.672352 0.692339
vt 0.928396 0.095140
vt 0.928396 0.007847
vt 0.934536 0.007847
vt 0.934535 0.095140
vt 0.359588 0.888485
vt 0.359588 0.917998
vt 0.139713 0.917998
vt 0.139713 0.888485
vt 0.386778 0.754099
vt 0.386778 0.738179
vt 0.606654 0.738180
vt 0.606654 0.754099
vt 0.306512 0.333771
vt 0.306512 0.241107
vt 0.354290 0.241107
vt 0.354290 0.333771
vt 0.386778 0.726289
vt 0.386778 0.710369
vt 0.606654 0.710369
vt 0.606654 0.726289
vt 0.386779 0.850516
vt 0.386779 0.876594
vt 0.332628 0.692339
vt 0.332628 0.698479
vt 0.112753 0.698479
vt 0.112753 0.692339
vt 0.008983 0.343520
vt 0.096274 0.343520
vt 0.352987 0.674308
vt 0.352987 0.680448
vt 0.040228 0.917998
vt 0.013271 0.888485
vt 0.733096 0.738179
vt 0.733096 0.754099
vt 0.133796 0.333771
vt 0.183022 0.333771
vt 0.306512 0.187821
vt 0.354290 0.187821
vt 0.733096 0.710369
vt 0.733096 0.726289
vt 0.733096 0.850516
vt 0.706140 0.876594
vt 0.606655 0.876594
vt 0.606655 0.850516
vt 0.013272 0.698478
vt 0.013272 0.692339
vt 0.008983 0.662880
vt 0.008983 0.563396
vt 0.096274 0.563396
vt 0.096274 0.662880
vt 0.672352 0.680448
vt 0.572866 0.680448
vt 0.572866 0.674308
vt 0.672352 0.674308
vt 0.244767 0.426435
vt 0.244767 0.491181
vt 0.133796 0.241107
vt 0.133796 0.187821
vt 0.183022 0.187821
vt 0.183022 0.241107
vt 0.126873 0.974606
vt 0.126873 0.990526
vt 0.013503 0.990526
vt 0.013503 0.974606
vt 0.423096 0.838625
vt 0.423096 0.804836
vt 0.536465 0.804836
vt 0.510387 0.838625
vt 0.952566 0.095135
vt 0.946426 0.095135
vt 0.946427 0.007847
vt 0.952566 0.007847
vt 0.389295 0.123644
vt 0.389295 0.003801
vt 0.476585 0.003801
vt 0.476585 0.123644
vt 0.389295 0.343520
vt 0.476585 0.343520
vt 0.389295 0.662880
vt 0.389295 0.563396
vt 0.476585 0.563396
vt 0.476585 0.662880
vt 0.928396 0.475450
vt 0.928396 0.388163
vt 0.934535 0.388163
vt 0.934536 0.475450
vt 0.126641 0.765990
vt 0.126641 0.792946
vt 0.039350 0.792946
vt 0.013272 0.765990
vt 0.423327 0.962716
vt 0.423327 0.946796
vt 0.536697 0.946796
vt 0.536697 0.962716
vt 0.928396 0.241653
vt 0.934535 0.241653
vt 0.242784 0.662880
vt 0.242784 0.563396
vt 0.704310 0.336529
vt 0.704310 0.012947
vt 0.919923 0.012947
vt 0.919923 0.336529
vt 0.242784 0.123644
vt 0.242784 0.003801
vt 0.952566 0.241644
vt 0.946426 0.241644
vt 0.276586 0.838625
vt 0.276586 0.804836
vt 0.273383 0.974606
vt 0.273383 0.990526
vt 0.244767 0.241107
vt 0.244767 0.187821
vt 0.244767 0.333771
vt 0.276817 0.962716
vt 0.276817 0.946796
vt 0.273151 0.765990
vt 0.273151 0.792946
vt 0.218168 0.934905
vt 0.013511 0.934905
vt 0.013503 0.931333
vt 0.218160 0.931333
vt 0.694863 0.768562
vt 0.841377 0.768562
vt 0.841377 0.771887
vt 0.694863 0.771886
vt 0.964456 0.212512
vt 0.964456 0.007855
vt 0.968029 0.007847
vt 0.968029 0.212504
vt 0.694864 0.783777
vt 0.841381 0.783777
vt 0.841381 0.787102
vt 0.694864 0.787102
vt 0.548356 0.783777
vt 0.548356 0.787102
vt 0.548356 0.768562
vt 0.548356 0.771886
vt 0.488696 0.336529
vt 0.488696 0.012947
vt 0.488696 0.660111
vt 0.704310 0.660111
vt 0.964456 0.417169
vt 0.968029 0.417161
vt 0.422825 0.934905
vt 0.422817 0.931333
vt 0.919923 0.660111
vn -1.0000 0.0000 0.0000
vn 1.0000 0.0000 -0.0000
vn -0.0000 -0.0000 1.0000
vn 0.0000 1.0000 0.0000
vn 0.0000 0.0000 -1.0000
vn 0.0000 -1.0000 0.0000
s 1
f 7/1/1 1/2/1 18/3/1 19/4/1
f 2/5/2 8/6/2 20/7/2 21/8/2
f 1/9/3 9/10/3 17/11/3 18/12/3
f 3/13/4 44/14/4 33/15/4 5/16/4
f 52/17/5 53/18/5 20/19/5 8/20/5
f 1/21/6 7/22/6 36/23/6 37/24/6
f 9/25/3 1/26/3 37/27/3 38/28/3
f 24/29/3 13/30/3 39/31/3 40/32/3
f 21/33/3 22/34/3 10/35/3 2/36/3
f 3/37/3 12/38/3 43/39/3 44/40/3
f 19/41/5 35/42/5 36/43/5 7/44/5
f 24/45/2 17/46/2 9/47/2 13/48/2
f 9/49/4 38/50/4 39/51/4 13/52/4
f 10/53/1 22/54/1 23/55/1 15/56/1
f 43/57/6 12/58/6 14/59/6 42/60/6
f 76/61/3 75/62/3 25/63/3 26/64/3
f 77/65/1 76/66/1 26/67/1 27/68/1
f 85/69/5 54/70/5 28/71/5 79/72/5
f 20/19/5 53/18/5 85/69/5 79/72/5
f 80/73/2 79/74/2 28/75/2 29/76/2
f 80/77/3 81/78/3 22/34/3 21/33/3
f 82/79/1 81/80/1 30/81/1 31/82/1
f 83/83/3 24/29/3 40/32/3 84/84/3
f 83/85/2 75/86/2 17/46/2 24/45/2
f 26/64/3 25/63/3 12/87/3 3/88/3
f 27/68/1 26/67/1 3/89/1 5/90/1
f 35/42/5 19/41/5 77/91/5 78/92/5
f 28/71/5 54/70/5 55/93/5 6/94/5
f 29/76/2 28/75/2 6/95/2 4/96/2
f 4/97/3 11/98/3 30/99/3 29/100/3
f 31/82/1 30/81/1 11/101/1 16/102/1
f 14/103/3 32/104/3 41/105/3 42/106/3
f 12/107/2 25/108/2 32/109/2 14/110/2
f 71/111/5 53/18/5 52/17/5 70/112/5
f 27/113/5 5/114/5 33/115/5 34/116/5
f 51/117/6 52/118/6 8/119/6 2/120/6
f 50/121/3 51/122/3 2/123/3 10/124/3
f 49/125/4 50/126/4 10/127/4 15/128/4
f 48/129/3 49/130/3 15/131/3 23/132/3
f 86/133/3 48/129/3 23/132/3 82/134/3
f 46/135/3 47/136/3 31/137/3 16/138/3
f 11/139/6 45/140/6 46/141/6 16/142/6
f 56/143/3 45/144/3 11/145/3 4/146/3
f 55/147/4 56/148/4 4/149/4 6/150/4
f 61/151/6 43/57/6 42/60/6 62/152/6
f 62/153/3 63/154/3 47/136/3 46/135/3
f 90/155/3 64/156/3 59/157/3 88/158/3
f 67/159/3 66/160/3 49/130/3 48/129/3
f 66/161/4 68/162/4 50/126/4 49/125/4
f 68/163/3 69/164/3 51/122/3 50/121/3
f 69/165/6 70/166/6 52/118/6 51/117/6
f 55/93/5 54/70/5 72/167/5 73/168/5
f 89/169/5 71/111/5 35/42/5 78/92/5
f 27/113/5 34/116/5 78/92/5 77/91/5
f 73/170/4 74/171/4 56/148/4 55/147/4
f 74/172/3 61/173/3 45/144/3 56/143/3
f 84/174/2 40/175/2 57/176/2 87/177/2
f 67/178/4 48/179/4 59/180/4 64/181/4
f 86/182/1 47/183/1 60/184/1 88/185/1
f 63/186/6 41/187/6 58/188/6 65/189/6
f 47/190/6 63/186/6 65/189/6 60/191/6
f 40/192/4 67/178/4 64/181/4 57/193/4
f 44/40/3 43/39/3 61/173/3 74/172/3
f 33/15/4 44/14/4 74/171/4 73/170/4
f 36/43/5 35/42/5 71/111/5 70/112/5
f 85/69/5 53/18/5 71/111/5 89/169/5
f 73/168/5 72/167/5 34/116/5 33/115/5
f 37/24/6 36/23/6 70/166/6 69/165/6
f 38/28/3 37/27/3 69/164/3 68/163/3
f 39/51/4 38/50/4 68/162/4 66/161/4
f 40/32/3 39/31/3 66/160/3 67/159/3
f 87/194/3 57/195/3 64/156/3 90/155/3
f 42/106/3 41/105/3 63/154/3 62/153/3
f 45/140/6 61/151/6 62/152/6 46/141/6
f 58/196/3 87/194/3 90/155/3 65/197/3
f 54/70/5 85/69/5 89/169/5 72/167/5
f 48/198/1 86/182/1 88/185/1 59/199/1
f 41/200/2 84/174/2 87/177/2 58/201/2
f 72/167/5 89/169/5 78/92/5 34/116/5
f 65/197/3 90/155/3 88/158/3 60/202/3
f 47/136/3 86/133/3 82/134/3 31/137/3
f 32/109/2 25/108/2 75/86/2 83/85/2
f 32/104/3 83/83/3 84/84/3 41/105/3
f 23/55/1 22/54/1 81/80/1 82/79/1
f 29/100/3 30/99/3 81/78/3 80/77/3
f 21/8/2 20/7/2 79/74/2 80/73/2
f 19/4/1 18/3/1 76/66/1 77/65/1
f 18/12/3 17/11/3 75/62/3 76/61/3
