# Blender v3.2.0 OBJ File: 'stem_bar_table.blend'
# www.blender.org
o stem_bar_table
v -0.000000 0.025006 -0.033593
v -0.000000 1.068147 -0.033593
v 0.012855 0.025006 -0.031036
v 0.012855 1.068147 -0.031036
v 0.023754 0.025006 -0.023754
v 0.023754 1.068147 -0.023754
v 0.031036 0.025006 -0.012855
v 0.031036 1.068147 -0.012855
v 0.033593 0.025006 0.000000
v 0.033593 1.068147 0.000000
v 0.031036 0.025006 0.012855
v 0.031036 1.068147 0.012855
v 0.023754 0.025006 0.023754
v 0.023754 1.068147 0.023754
v 0.012855 0.025006 0.031036
v 0.012855 1.068147 0.031036
v -0.000000 0.025006 0.033593
v -0.000000 1.068147 0.033593
v -0.012855 0.025006 0.031036
v -0.012855 1.068147 0.031036
v -0.023754 0.025006 0.023754
v -0.023754 1.068147 0.023754
v -0.031036 0.025006 0.012855
v -0.031036 1.068147 0.012855
v -0.033593 0.025006 0.000000
v -0.033593 1.068147 0.000000
v -0.031036 0.025006 -0.012855
v -0.031036 1.068147 -0.012855
v -0.023754 0.025006 -0.023754
v -0.023754 1.068147 -0.023754
v -0.012855 0.025006 -0.031036
v -0.012855 1.068147 -0.031036
v -0.400000 1.068147 0.400000
v -0.400000 1.100000 0.400000
v -0.400000 1.068147 -0.400000
v -0.400000 1.100000 -0.400000
v 0.400000 1.068147 0.400000
v 0.400000 1.100000 0.400000
v 0.400000 1.068147 -0.400000
v 0.400000 1.100000 -0.400000
v -0.064116 0.000000 -0.311662
v 0.000000 0.025006 -0.317977
v -0.125768 0.000000 -0.292960
v 0.064116 0.025006 -0.311662
v -0.182588 0.000000 -0.262590
v 0.125768 0.025006 -0.292960
v -0.232390 0.000000 -0.221718
v 0.182588 0.025006 -0.262590
v -0.273262 0.000000 -0.171916
v 0.232390 0.025006 -0.221718
v -0.303632 0.000000 -0.115097
v 0.273262 0.025006 -0.171916
v -0.322334 0.000000 -0.053445
v 0.303632 0.025006 -0.115097
v -0.328649 0.000000 0.010672
v 0.322334 0.025006 -0.053445
v -0.322334 0.000000 0.074788
v 0.328649 0.025006 0.010672
v -0.303632 0.000000 0.136440
v 0.322334 0.025006 0.074788
v -0.273262 0.000000 0.193259
v 0.303632 0.025006 0.136440
v -0.232390 0.000000 0.243061
v 0.273262 0.025006 0.193259
v -0.182588 0.000000 0.283933
v 0.232390 0.025006 0.243061
v -0.125768 0.000000 0.314304
v 0.182588 0.025006 0.283933
v -0.064116 0.000000 0.333006
v 0.125768 0.025006 0.314304
v -0.000000 0.000000 0.339320
v 0.064116 0.025006 0.333006
v 0.064116 0.000000 0.333006
v -0.000000 0.025006 0.339320
v 0.125768 0.000000 0.314304
v -0.064116 0.025006 0.333006
v 0.182588 0.000000 0.283933
v -0.125768 0.025006 0.314304
v 0.232390 0.000000 0.243061
v -0.182588 0.025006 0.283933
v 0.273262 0.000000 0.193259
v -0.232390 0.025006 0.243061
v 0.303632 0.000000 0.136440
v -0.273262 0.025006 0.193259
v 0.322334 0.000000 0.074788
v -0.303632 0.025006 0.136440
v 0.328649 0.000000 0.010672
v -0.322334 0.025006 0.074788
v 0.322334 0.000000 -0.053445
v -0.328649 0.025006 0.010672
v 0.303632 0.000000 -0.115097
v -0.322334 0.025006 -0.053445
v 0.273262 0.000000 -0.171916
v -0.303632 0.025006 -0.115097
v 0.232390 0.000000 -0.221718
v -0.273262 0.025006 -0.171916
v 0.182588 0.000000 -0.262590
v -0.232390 0.025006 -0.221718
v 0.125768 0.000000 -0.292960
v -0.182588 0.025006 -0.262590
v 0.000000 0.000000 -0.317977
v -0.125768 0.025006 -0.292960
v 0.064116 0.000000 -0.311662
v -0.064116 0.025006 -0.311662
v -0.000000 0.025006 0.010672
v -0.000000 0.000000 0.010672
vt 0.507958 0.489405
vt 0.489405 0.489405
vt 0.489405 0.023431
vt 0.507958 0.023431
vt 0.489405 0.004878
vt 0.023431 0.023432
vt 0.023431 0.004878
vt 0.004878 0.023432
vt 0.023431 0.489405
vt 0.004878 0.489405
vt 0.023432 0.507958
vt 0.489405 0.507958
vt 0.517727 0.004878
vt 0.983699 0.004878
vt 0.983699 0.470850
vt 0.517727 0.470850
vt 0.922471 0.479207
vt 0.922471 0.994730
vt 0.913473 0.994768
vt 0.913473 0.479245
vt 0.904475 0.994806
vt 0.904475 0.479283
vt 0.895477 0.994844
vt 0.895477 0.479321
vt 0.886479 0.994882
vt 0.886479 0.479358
vt 0.877481 0.994920
vt 0.877481 0.479396
vt 0.868483 0.994958
vt 0.868483 0.479434
vt 0.859486 0.994995
vt 0.859486 0.479472
vt 0.850488 0.995033
vt 0.850488 0.479510
vt 0.994453 0.478905
vt 0.994453 0.994428
vt 0.985455 0.994466
vt 0.985455 0.478942
vt 0.976458 0.994503
vt 0.976458 0.478980
vt 0.967460 0.994541
vt 0.967460 0.479018
vt 0.958462 0.994579
vt 0.958462 0.479056
vt 0.949464 0.994617
vt 0.949464 0.479094
vt 0.940466 0.994655
vt 0.940466 0.479132
vt 0.931468 0.994693
vt 0.931468 0.479169
vt 0.355396 0.910883
vt 0.355396 0.921348
vt 0.328433 0.921348
vt 0.328433 0.910883
vt 0.112733 0.910883
vt 0.112733 0.921348
vt 0.085770 0.921348
vt 0.085770 0.910883
vt 0.732871 0.910883
vt 0.732871 0.921348
vt 0.705909 0.921348
vt 0.705909 0.910883
vt 0.463246 0.910883
vt 0.463246 0.921348
vt 0.436283 0.921348
vt 0.436283 0.910883
vt 0.220583 0.910883
vt 0.220583 0.921348
vt 0.193620 0.921348
vt 0.193620 0.910883
vt 0.840721 0.910883
vt 0.840721 0.921348
vt 0.813759 0.921348
vt 0.813759 0.910883
vt 0.571096 0.910883
vt 0.571096 0.921348
vt 0.544133 0.921348
vt 0.544133 0.910883
vt 0.301471 0.921348
vt 0.301471 0.910883
vt 0.058808 0.921348
vt 0.058808 0.910883
vt 0.678946 0.910883
vt 0.678946 0.921348
vt 0.651984 0.921348
vt 0.651984 0.910883
vt 0.409321 0.921348
vt 0.409321 0.910883
vt 0.166658 0.921348
vt 0.166658 0.910883
vt 0.786796 0.921348
vt 0.786796 0.910883
vt 0.517171 0.921348
vt 0.517171 0.910883
vt 0.274508 0.921348
vt 0.274508 0.910883
vt 0.031845 0.921348
vt 0.031845 0.910883
vt 0.697704 0.840214
vt 0.607465 0.671389
vt 0.755441 0.792830
vt 0.728906 0.819365
vt 0.663033 0.854574
vt 0.626228 0.861895
vt 0.588701 0.861895
vt 0.551897 0.854574
vt 0.517227 0.840214
vt 0.486025 0.819365
vt 0.459490 0.792830
vt 0.438641 0.761628
vt 0.424280 0.726958
vt 0.416959 0.690152
vt 0.416959 0.652626
vt 0.424280 0.615821
vt 0.438641 0.581151
vt 0.459490 0.549949
vt 0.486025 0.523414
vt 0.517227 0.502565
vt 0.551896 0.488205
vt 0.588702 0.480884
vt 0.626228 0.480884
vt 0.663034 0.488205
vt 0.697704 0.502565
vt 0.728906 0.523414
vt 0.755441 0.549949
vt 0.776289 0.581151
vt 0.790650 0.615821
vt 0.797971 0.652626
vt 0.797971 0.690153
vt 0.790650 0.726958
vt 0.776289 0.761628
vt 0.047415 0.830824
vt 0.026567 0.799623
vt 0.195390 0.709385
vt 0.073951 0.857360
vt 0.012207 0.764953
vt 0.004886 0.728148
vt 0.004886 0.690622
vt 0.012207 0.653817
vt 0.625021 0.921348
vt 0.625021 0.910883
vt 0.026567 0.619148
vt 0.047415 0.587946
vt 0.382358 0.921348
vt 0.382358 0.910883
vt 0.073950 0.561411
vt 0.105152 0.540562
vt 0.139695 0.921348
vt 0.139695 0.910883
vt 0.139821 0.526202
vt 0.176627 0.518881
vt 0.759834 0.921348
vt 0.759834 0.910883
vt 0.214153 0.518881
vt 0.250958 0.526202
vt 0.490209 0.921348
vt 0.490209 0.910883
vt 0.285627 0.540562
vt 0.316829 0.561411
vt 0.247546 0.921348
vt 0.247546 0.910883
vt 0.343364 0.587946
vt 0.364212 0.619147
vt 0.004882 0.921348
vt 0.004882 0.910883
vt 0.378573 0.653817
vt 0.385894 0.690622
vt 0.598058 0.921348
vt 0.598058 0.910883
vt 0.385894 0.728148
vt 0.378573 0.764953
vt 0.364213 0.799622
vt 0.343364 0.830824
vt 0.316829 0.857359
vt 0.285627 0.878208
vt 0.250958 0.892568
vt 0.214153 0.899889
vt 0.176627 0.899889
vt 0.139822 0.892568
vt 0.105153 0.878208
vn -1.0000 0.0000 0.0000
vn 0.0000 0.0000 -1.0000
vn 1.0000 0.0000 0.0000
vn 0.0000 0.0000 1.0000
vn 0.0000 -1.0000 0.0000
vn 0.0000 1.0000 0.0000
vn 0.3827 0.0000 -0.9239
vn 0.7071 0.0000 -0.7071
vn 0.9239 0.0000 -0.3827
vn 0.9239 0.0000 0.3827
vn 0.7071 0.0000 0.7071
vn 0.3827 0.0000 0.9239
vn -0.3827 0.0000 0.9239
vn -0.7071 0.0000 0.7071
vn -0.9239 0.0000 0.3827
vn -0.9239 0.0000 -0.3827
vn -0.7071 0.0000 -0.7071
vn -0.3827 0.0000 -0.9239
vn -0.5556 0.0000 0.8315
vn 0.8315 0.0000 0.5556
vn 0.1951 0.0000 -0.9808
vn -0.9808 0.0000 0.1951
vn 0.1951 0.0000 0.9808
vn 0.8315 0.0000 -0.5556
vn -0.8315 0.0000 -0.5556
vn 0.9808 0.0000 0.1951
vn -0.1951 0.0000 -0.9808
vn 0.5556 0.0000 0.8315
vn -0.1951 0.0000 0.9808
vn -0.8315 0.0000 0.5556
vn 0.5556 0.0000 -0.8315
vn -0.9808 0.0000 -0.1951
vn 0.9808 0.0000 -0.1951
vn -0.5556 0.0000 -0.8315
s off
f 33/1/1 34/2/1 36/3/1 35/4/1
f 35/5/2 36/3/2 40/6/2 39/7/2
f 39/8/3 40/6/3 38/9/3 37/10/3
f 37/11/4 38/9/4 34/2/4 33/12/4
f 35/13/5 39/14/5 37/15/5 33/16/5
f 40/6/6 36/3/6 34/2/6 38/9/6
s 1
f 1/17/2 2/18/2 4/19/7 3/20/7
f 3/20/7 4/19/7 6/21/8 5/22/8
f 5/22/8 6/21/8 8/23/9 7/24/9
f 7/24/9 8/23/9 10/25/3 9/26/3
f 9/26/3 10/25/3 12/27/10 11/28/10
f 11/28/10 12/27/10 14/29/11 13/30/11
f 13/30/11 14/29/11 16/31/12 15/32/12
f 15/32/12 16/31/12 18/33/4 17/34/4
f 17/35/4 18/36/4 20/37/13 19/38/13
f 19/38/13 20/37/13 22/39/14 21/40/14
f 21/40/14 22/39/14 24/41/15 23/42/15
f 23/42/15 24/41/15 26/43/1 25/44/1
f 25/44/1 26/43/1 28/45/16 27/46/16
f 27/46/16 28/45/16 30/47/17 29/48/17
f 29/48/17 30/47/17 32/49/18 31/50/18
f 31/50/18 32/49/18 2/18/2 1/17/2
f 82/51/14 63/52/14 65/53/19 80/54/19
f 64/55/20 81/56/20 83/57/10 62/58/10
f 46/59/7 99/60/7 103/61/21 44/62/21
f 90/63/1 55/64/1 57/65/22 88/66/22
f 72/67/23 73/68/23 75/69/12 70/70/12
f 54/71/9 91/72/9 93/73/24 52/74/24
f 98/75/17 47/76/17 49/77/25 96/78/25
f 80/54/19 65/53/19 67/79/13 78/80/13
f 62/58/10 83/57/10 85/81/26 60/82/26
f 42/83/2 101/84/2 41/85/27 104/86/27
f 44/62/21 103/61/21 101/84/2 42/83/2
f 88/66/22 57/65/22 59/87/15 86/88/15
f 70/70/12 75/69/12 77/89/28 68/90/28
f 52/74/24 93/73/24 95/91/8 50/92/8
f 96/78/25 49/77/25 51/93/16 94/94/16
f 78/80/13 67/79/13 69/95/29 76/96/29
f 60/82/26 85/81/26 87/97/3 58/98/3
f 99/99/5 106/100/5 101/101/5 103/102/5
f 97/103/5 95/104/5 106/100/5 99/99/5
f 93/105/5 91/106/5 106/100/5 95/104/5
f 89/107/5 87/108/5 106/100/5 91/106/5
f 85/109/5 83/110/5 106/100/5 87/108/5
f 81/111/5 79/112/5 106/100/5 83/110/5
f 77/113/5 75/114/5 106/100/5 79/112/5
f 73/115/5 71/116/5 106/100/5 75/114/5
f 69/117/5 67/118/5 106/100/5 71/116/5
f 65/119/5 63/120/5 106/100/5 67/118/5
f 61/121/5 59/122/5 106/100/5 63/120/5
f 57/123/5 55/124/5 106/100/5 59/122/5
f 53/125/5 51/126/5 106/100/5 55/124/5
f 49/127/5 47/128/5 106/100/5 51/126/5
f 45/129/5 43/130/5 106/100/5 47/128/5
f 41/131/5 101/101/5 106/100/5 43/130/5
f 104/132/6 102/133/6 105/134/6 42/135/6
f 100/136/6 98/137/6 105/134/6 102/133/6
f 96/138/6 94/139/6 105/134/6 98/137/6
f 104/86/27 41/85/27 43/140/18 102/141/18
f 92/142/6 90/143/6 105/134/6 94/139/6
f 86/88/15 59/87/15 61/144/30 84/145/30
f 88/146/6 86/147/6 105/134/6 90/143/6
f 68/90/28 77/89/28 79/148/11 66/149/11
f 84/150/6 82/151/6 105/134/6 86/147/6
f 50/92/8 95/91/8 97/152/31 48/153/31
f 80/154/6 78/155/6 105/134/6 82/151/6
f 94/94/16 51/93/16 53/156/32 92/157/32
f 76/158/6 74/159/6 105/134/6 78/155/6
f 76/96/29 69/95/29 71/160/4 74/161/4
f 72/162/6 70/163/6 105/134/6 74/159/6
f 58/98/3 87/97/3 89/164/33 56/165/33
f 68/166/6 66/167/6 105/134/6 70/163/6
f 102/141/18 43/140/18 45/168/34 100/169/34
f 64/170/6 62/171/6 105/134/6 66/167/6
f 84/145/30 61/144/30 63/52/14 82/51/14
f 60/172/6 58/173/6 105/134/6 62/171/6
f 66/149/11 79/148/11 81/56/20 64/55/20
f 56/174/6 54/175/6 105/134/6 58/173/6
f 48/153/31 97/152/31 99/60/7 46/59/7
f 52/176/6 50/177/6 105/134/6 54/175/6
f 92/157/32 53/156/32 55/64/1 90/63/1
f 48/178/6 46/179/6 105/134/6 50/177/6
f 74/161/4 71/160/4 73/68/23 72/67/23
f 100/169/34 45/168/34 47/76/17 98/75/17
f 56/165/33 89/164/33 91/72/9 54/71/9
f 46/179/6 44/180/6 42/135/6 105/134/6
