# Blender v3.1.2 OBJ File: 'outdoor_sign.blend'
# www.blender.org
o outdoor_sign
v 0.429720 0.500000 -0.018937
v -0.429720 0.500000 -0.018937
v -0.429720 1.494476 -0.018937
v 0.429720 1.494476 -0.018937
v -0.429720 0.500000 0.018937
v 0.429720 0.500000 0.018937
v 0.429720 1.494476 0.018937
v -0.429720 1.494476 0.018937
v -0.500000 0.000000 0.037500
v -0.500000 1.502762 0.037500
v -0.500000 0.000000 -0.037500
v -0.500000 1.502762 -0.037500
v 0.500000 0.000000 0.037500
v 0.500000 1.502762 0.037500
v 0.500000 0.000000 -0.037500
v 0.500000 1.502762 -0.037500
v 0.429720 0.000000 -0.037500
v -0.429720 0.000000 -0.037500
v -0.429720 1.502762 -0.037500
v 0.429720 1.502762 -0.037500
v -0.429720 0.000000 0.037500
v 0.429720 0.000000 0.037500
v 0.429720 1.502762 0.037500
v -0.429720 1.502762 0.037500
vt 0.494232 0.614032
vt 0.005768 0.614032
vt 0.005768 0.592506
vt 0.494232 0.592506
vt 0.005768 0.005768
vt 0.494232 0.005769
vt 0.494232 0.027294
vt 0.005768 0.027294
vt 0.994232 0.005768
vt 0.994232 0.570980
vt 0.505768 0.570979
vt 0.505768 0.005768
vt 0.902493 0.927441
vt 0.048395 0.927441
vt 0.048395 0.884814
vt 0.902493 0.884815
vt 0.005768 0.668195
vt 0.859866 0.668195
vt 0.859866 0.708138
vt 0.005768 0.708138
vt 0.859866 0.750765
vt 0.005768 0.750764
vt 0.902493 0.967384
vt 0.048395 0.967385
vt 0.907098 0.676007
vt 0.867154 0.676007
vt 0.867154 0.633381
vt 0.907098 0.633381
vt 0.005768 0.967385
vt 0.005768 0.927441
vt 0.902493 0.750765
vt 0.902493 0.790709
vt 0.859866 0.790709
vt 0.907097 0.730169
vt 0.867154 0.730169
vt 0.867154 0.687543
vt 0.907097 0.687543
vt 0.005768 0.790708
vt 0.048395 0.844870
vt 0.902493 0.844871
vt 0.859866 0.625568
vt 0.005768 0.625569
vt 0.048395 0.802245
vt 0.902493 0.802245
vn 0.0000 1.0000 0.0000
vn 0.0000 -1.0000 0.0000
vn 0.0000 0.0000 1.0000
vn 0.0000 0.0000 -1.0000
vn -1.0000 0.0000 0.0000
vn 1.0000 0.0000 0.0000
s off
f 4/1/1 3/2/1 8/3/1 7/4/1
f 2/5/2 1/6/2 6/7/2 5/8/2
f 6/7/3 7/4/3 8/3/3 5/8/3
f 2/9/4 3/10/4 4/11/4 1/12/4
f 9/13/5 10/14/5 12/15/5 11/16/5
f 17/17/4 20/18/4 16/19/4 15/20/4
f 15/20/6 16/19/6 14/21/6 13/22/6
f 21/23/3 24/24/3 10/14/3 9/13/3
f 17/25/2 15/26/2 13/27/2 22/28/2
f 19/29/1 12/30/1 10/14/1 24/24/1
f 16/31/1 20/32/1 23/33/1 14/21/1
f 11/34/2 18/35/2 21/36/2 9/37/2
f 13/22/3 14/21/3 23/33/3 22/38/3
f 11/16/4 12/15/4 19/39/4 18/40/4
f 23/41/5 20/18/5 17/17/5 22/42/5
f 24/43/6 21/44/6 18/40/6 19/39/6
