# Blender v3.1.2 OBJ File: 'small_pallet.blend'
# www.blender.org
o small_pallet
v -0.133367 0.018069 -0.092515
v 0.133367 0.018069 -0.092515
v -0.133367 0.018069 0.092515
v 0.133367 0.018069 0.092515
v -0.133367 0.000000 -0.092515
v 0.133367 0.000000 -0.092515
v -0.133367 0.000000 0.092515
v 0.133367 0.000000 0.092515
v -0.411864 0.133011 0.500241
v -0.411864 0.155024 0.500241
v -0.275123 0.133011 0.500241
v -0.411864 0.133011 -0.500241
v -0.411864 0.155024 -0.500241
v -0.275123 0.133011 -0.500241
v -0.275123 0.155024 -0.500241
v -0.275123 0.155024 0.500241
v 0.411864 0.155024 -0.500241
v 0.283083 0.155024 -0.500241
v 0.411864 0.133011 -0.500241
v 0.411864 0.155024 0.500241
v 0.283083 0.155024 0.500241
v 0.283083 0.133011 -0.500241
v 0.411864 0.133011 0.500241
v 0.283083 0.133011 0.500241
v 0.068973 0.155024 -0.500241
v 0.068973 0.155024 0.500241
v 0.068973 0.133011 -0.500241
v 0.068973 0.133011 0.500241
v -0.059808 0.133011 -0.500241
v -0.059808 0.155024 -0.500241
v -0.059808 0.133011 0.500241
v -0.059808 0.155024 0.500241
v 0.411864 0.133011 -0.436080
v -0.411864 0.133011 -0.436080
v 0.411864 0.133011 -0.491084
v -0.411864 0.133011 -0.491084
v -0.411864 0.071376 -0.436079
v -0.332168 0.000000 -0.436079
v 0.332168 0.000000 -0.436079
v 0.411864 0.071376 -0.436079
v 0.411864 0.071376 -0.491084
v 0.332168 -0.000000 -0.491084
v -0.332168 -0.000000 -0.491084
v -0.411864 0.071376 -0.491084
v 0.411864 0.133011 0.436079
v -0.411864 0.133011 0.436079
v 0.411864 0.133011 0.491084
v -0.411864 0.133011 0.491084
v -0.411864 0.071377 0.436079
v -0.332168 0.000000 0.436079
v 0.332168 0.000000 0.436079
v 0.411864 0.071377 0.436079
v 0.411864 0.071377 0.491084
v 0.332168 0.000000 0.491084
v -0.332168 0.000000 0.491084
v -0.411864 0.071377 0.491084
v 0.432877 0.133011 -0.084347
v -0.432877 0.133011 -0.084347
v -0.432877 0.018069 -0.084347
v 0.432877 0.018069 -0.084347
v -0.432877 0.133011 -0.065884
v 0.432877 0.133011 -0.065884
v -0.432877 0.018069 -0.065884
v 0.432877 0.018069 -0.065884
v 0.432877 0.133011 0.084347
v -0.432877 0.133011 0.084347
v -0.432877 0.018069 0.084347
v 0.432877 0.018069 0.084347
v -0.432877 0.133011 0.065884
v 0.432877 0.133011 0.065884
v -0.432877 0.018069 0.065884
v 0.432877 0.018069 0.065884
v 0.133367 0.018069 -0.000000
v -0.133367 0.018069 -0.000000
v 0.133367 0.000000 -0.000000
v -0.133367 0.000000 -0.000000
vt 0.357867 0.678953
vt 0.348175 0.678953
vt 0.348175 0.629331
vt 0.357867 0.629331
vt 0.166411 0.019725
vt 0.178218 0.019725
vt 0.178218 0.556350
vt 0.166412 0.556350
vt 0.357867 0.728575
vt 0.348175 0.728575
vt 0.166412 0.568157
vt 0.093068 0.568157
vt 0.093068 0.556350
vt 0.093067 0.019725
vt 0.007918 0.692928
vt 0.150985 0.692929
vt 0.150985 0.702620
vt 0.007918 0.702620
vt 0.464338 0.556349
vt 0.452531 0.556349
vt 0.452532 0.019725
vt 0.464339 0.019725
vt 0.093067 0.007918
vt 0.166411 0.007918
vt 0.007918 0.019725
vt 0.081261 0.019725
vt 0.081261 0.556350
vt 0.007918 0.556350
vt 0.383457 0.568156
vt 0.383457 0.556349
vt 0.452531 0.568157
vt 0.650094 0.449737
vt 0.620591 0.449737
vt 0.620591 0.007918
vt 0.650094 0.007918
vt 0.196324 0.662390
vt 0.166821 0.662390
vt 0.166821 0.629331
vt 0.196324 0.629331
vt 0.533412 0.019725
vt 0.533412 0.556349
vt 0.263128 0.019725
vt 0.274935 0.019725
vt 0.274934 0.556349
vt 0.263128 0.556349
vt 0.896215 0.364244
vt 0.896215 0.007918
vt 0.925717 0.007918
vt 0.925717 0.364244
vt 0.355815 0.019725
vt 0.355815 0.556349
vt 0.344008 0.556350
vt 0.344009 0.019725
vt 0.332339 0.629331
vt 0.332339 0.662390
vt 0.302836 0.662390
vt 0.302836 0.629331
vt 0.274935 0.007918
vt 0.344009 0.007918
vt 0.196324 0.719773
vt 0.166821 0.719773
vt 0.287001 0.719774
vt 0.257498 0.719774
vt 0.257498 0.686715
vt 0.287001 0.686715
vt 0.523147 0.583993
vt 0.523147 0.613495
vt 0.166821 0.613495
vt 0.166821 0.583993
vt 0.683152 0.465573
vt 0.721436 0.508319
vt 0.721436 0.864645
vt 0.683152 0.907391
vt 0.650094 0.465573
vt 0.650094 0.907391
vt 0.620591 0.907391
vt 0.620590 0.465573
vt 0.241662 0.686715
vt 0.241662 0.719774
vt 0.212160 0.719774
vt 0.212160 0.686715
vt 0.257498 0.629331
vt 0.287001 0.629331
vt 0.212160 0.629331
vt 0.241662 0.629331
vt 0.587532 0.465573
vt 0.587533 0.907391
vt 0.870476 0.482179
vt 0.808825 0.482179
vt 0.808825 0.017821
vt 0.870476 0.017821
vt 0.737272 0.492082
vt 0.737272 0.482179
vt 0.798922 0.482179
vt 0.798922 0.492082
vt 0.798922 0.017821
vt 0.587533 0.449737
vt 0.587532 0.007918
vt 0.880379 0.017821
vt 0.880379 0.482179
vt 0.737272 0.017821
vt 0.549249 0.406990
vt 0.549248 0.050665
vt 0.549248 0.508319
vt 0.549249 0.864645
vt 0.683152 0.007918
vt 0.683152 0.449737
vt 0.798922 0.007918
vt 0.737272 0.007918
vt 0.737272 0.982179
vt 0.737272 0.517821
vt 0.798922 0.517821
vt 0.798922 0.982179
vt 0.870476 0.982179
vt 0.808825 0.982179
vt 0.808825 0.517821
vt 0.870476 0.517821
vt 0.798922 0.992082
vt 0.737272 0.992082
vt 0.737272 0.507918
vt 0.798922 0.507918
vt 0.880379 0.517821
vt 0.880379 0.982179
vt 0.371651 0.556349
vt 0.371651 0.019725
vt 0.383458 0.019725
vt 0.007918 0.593684
vt 0.150985 0.593684
vt 0.150985 0.643307
vt 0.007918 0.643306
vt 0.007918 0.801864
vt 0.007918 0.752242
vt 0.150985 0.752242
vt 0.150985 0.801864
vt 0.383394 0.728575
vt 0.373703 0.728575
vt 0.373703 0.678953
vt 0.383394 0.678953
vt 0.721436 0.050664
vt 0.721436 0.406990
vt 0.274934 0.568156
vt 0.344008 0.568157
vt 0.332339 0.719774
vt 0.302836 0.719774
vt 0.383458 0.007918
vt 0.452532 0.007918
vt 0.007918 0.583993
vt 0.150985 0.583993
vt 0.383394 0.629331
vt 0.373703 0.629331
vt 0.194054 0.556349
vt 0.194054 0.019725
vn -1.0000 -0.0000 0.0000
vn 0.0000 0.0000 1.0000
vn 0.0000 1.0000 -0.0000
vn 0.0000 0.0000 -1.0000
vn 1.0000 0.0000 0.0000
vn 0.0000 -1.0000 0.0000
vn -0.6672 -0.7449 -0.0000
vn 0.6672 -0.7449 0.0000
s 1
f 74/1/1 76/2/1 7/3/1 3/4/1
f 13/5/1 12/6/1 9/7/1 10/8/1
f 74/1/1 1/9/1 5/10/1 76/2/1
f 10/8/2 9/11/2 11/12/2 16/13/2
f 13/5/3 10/8/3 16/13/3 15/14/3
f 1/15/4 2/16/4 6/17/4 5/18/4
f 19/19/5 17/20/5 20/21/5 23/22/5
f 13/5/4 15/14/4 14/23/4 12/24/4
f 12/25/6 14/26/6 11/27/6 9/28/6
f 22/29/4 18/30/4 17/20/4 19/31/4
f 47/32/3 45/33/3 46/34/3 48/35/3
f 49/36/1 56/37/1 48/38/1 46/39/1
f 19/19/6 23/22/6 24/40/6 22/41/6
f 27/42/5 25/43/5 26/44/5 28/45/5
f 50/46/6 51/47/6 54/48/6 55/49/6
f 29/50/1 31/51/1 32/52/1 30/53/1
f 47/54/5 53/55/5 52/56/5 45/57/5
f 27/58/4 29/59/4 30/53/4 25/43/4
f 49/36/7 50/60/7 55/61/7 56/37/7
f 35/62/5 33/63/5 40/64/5 41/65/5
f 38/66/6 43/67/6 42/68/6 39/69/6
f 41/70/4 42/71/4 43/72/4 44/73/4
f 35/74/3 36/75/3 34/76/3 33/77/3
f 37/78/1 34/79/1 36/80/1 44/81/1
f 41/65/8 40/64/8 39/82/8 42/83/8
f 37/78/7 44/81/7 43/84/7 38/85/7
f 40/86/2 33/77/2 34/76/2 37/87/2
f 68/88/2 65/89/2 66/90/2 67/91/2
f 68/92/5 72/93/5 70/94/5 65/95/5
f 65/89/3 70/94/3 69/96/3 66/90/3
f 52/97/4 49/98/4 46/34/4 45/33/4
f 67/91/6 71/99/6 72/100/6 68/88/6
f 72/93/4 71/101/4 69/96/4 70/94/4
f 30/53/3 32/52/3 26/44/3 25/43/3
f 51/102/4 50/103/4 49/98/4 52/97/4
f 39/104/2 40/86/2 37/87/2 38/105/2
f 35/74/4 41/70/4 44/73/4 36/75/4
f 47/32/2 48/35/2 56/106/2 53/107/2
f 66/108/1 69/96/1 71/101/1 67/109/1
f 60/110/4 59/111/4 58/112/4 57/113/4
f 64/114/2 62/115/2 61/116/2 63/117/2
f 60/110/5 57/113/5 62/118/5 64/119/5
f 57/113/3 58/112/3 61/116/3 62/115/3
f 58/112/1 59/111/1 63/120/1 61/121/1
f 59/122/6 60/123/6 64/114/6 63/117/6
f 22/124/1 24/125/1 21/126/1 18/30/1
f 3/127/3 4/128/3 73/129/3 74/130/3
f 7/131/6 76/132/6 75/133/6 8/134/6
f 17/20/3 18/30/3 21/126/3 20/21/3
f 15/14/5 16/13/5 11/27/5 14/26/5
f 4/135/5 8/136/5 75/137/5 73/138/5
f 53/107/2 56/106/2 55/139/2 54/140/2
f 28/141/2 26/44/2 32/52/2 31/142/2
f 53/55/8 54/143/8 51/144/8 52/56/8
f 24/145/2 23/146/2 20/21/2 21/126/2
f 5/18/6 6/17/6 75/133/6 76/132/6
f 3/127/2 7/147/2 8/148/2 4/128/2
f 1/15/3 74/130/3 73/129/3 2/16/3
f 2/149/5 73/138/5 75/137/5 6/150/5
f 27/42/6 28/45/6 31/151/6 29/152/6
