# Blender v3.1.2 OBJ File: 'decorative_painting_frame_01.blend'
# www.blender.org
o decorative_painting_frame_01
v 0.065188 0.000000 0.005272
v 0.065188 0.000000 0.004165
v 0.072597 0.000000 0.006023
v 0.097370 0.081873 0.008196
v 0.096214 0.000000 0.008196
v 0.089852 0.000000 0.006023
v 0.076202 0.000000 0.008606
v 0.072499 0.000000 0.007103
v 0.089852 0.000000 0.008196
v 0.076814 0.000000 0.007837
v 0.072695 0.000000 0.007622
v 0.091291 0.000000 0.008196
v 0.077521 0.000000 0.007837
v 0.073169 0.000000 0.007837
v 0.092203 0.000000 0.009505
v 0.077995 0.000000 0.007622
v 0.073839 0.000000 0.007837
v 0.093753 0.000000 0.010026
v 0.078191 0.000000 0.007103
v 0.074450 0.000000 0.008606
v 0.097370 0.000000 0.000000
v 0.097370 0.000000 0.008196
v 0.065188 0.046246 0.005272
v 0.065188 0.046246 0.004165
v 0.097370 0.081873 0.000000
v 0.000000 0.081873 0.000000
v 0.000000 0.081873 0.008196
v 0.000000 0.080593 0.008196
v 0.000000 0.079584 0.009505
v 0.000000 0.077869 0.010026
v 0.000000 0.076153 0.009505
v 0.000000 0.075143 0.008196
v 0.000000 0.073551 0.008196
v 0.000000 0.073551 0.006023
v 0.000000 0.060641 0.006023
v 0.000000 0.060641 0.007103
v 0.000000 0.060423 0.007622
v 0.000000 0.059899 0.007837
v 0.000000 0.059116 0.007837
v 0.000000 0.058439 0.008606
v 0.000000 0.057469 0.008807
v 0.000000 0.056500 0.008606
v 0.000000 0.055823 0.007837
v 0.000000 0.055081 0.007837
v 0.000000 0.054556 0.007622
v 0.000000 0.054337 0.007103
v 0.000000 0.054337 0.006023
v 0.000000 0.046246 0.005272
v 0.000000 0.046246 0.004165
v 0.000000 0.000000 0.004165
v 0.074450 0.056500 0.008606
v 0.078191 0.060641 0.007103
v 0.093753 0.077869 0.010026
v 0.073839 0.055823 0.007837
v 0.077995 0.060423 0.007622
v 0.092203 0.076153 0.009505
v 0.073169 0.055081 0.007837
v 0.077521 0.059899 0.007837
v 0.091291 0.075143 0.008196
v 0.072695 0.054556 0.007622
v 0.076814 0.059116 0.007837
v 0.089852 0.073551 0.008196
v 0.072499 0.054337 0.007103
v 0.076202 0.058439 0.008606
v 0.089852 0.073551 0.006023
v 0.096214 0.080593 0.008196
v 0.072597 0.054337 0.006023
v 0.075326 0.057469 0.008807
v 0.078191 0.060641 0.006023
v 0.095302 0.079584 0.009505
v 0.075326 0.000000 0.008807
v 0.078191 0.000000 0.006023
v 0.095302 0.000000 0.009505
v 0.000000 0.000000 0.000000
v -0.065188 0.000000 0.005272
v -0.065188 0.000000 0.004165
v -0.072597 0.000000 0.006023
v -0.097370 0.081873 0.008196
v -0.096214 0.000000 0.008196
v -0.089852 0.000000 0.006023
v -0.076202 0.000000 0.008606
v -0.072499 0.000000 0.007103
v -0.089852 0.000000 0.008196
v -0.076814 0.000000 0.007837
v -0.072695 0.000000 0.007622
v -0.091291 0.000000 0.008196
v -0.077521 0.000000 0.007837
v -0.073169 0.000000 0.007837
v -0.092203 0.000000 0.009505
v -0.077995 0.000000 0.007622
v -0.073839 0.000000 0.007837
v -0.093753 0.000000 0.010026
v -0.078191 0.000000 0.007103
v -0.074450 0.000000 0.008606
v -0.097370 0.000000 0.000000
v -0.097370 0.000000 0.008196
v -0.065188 0.046246 0.005272
v -0.065188 0.046246 0.004165
v -0.097370 0.081873 0.000000
v -0.074450 0.056500 0.008606
v -0.078191 0.060641 0.007103
v -0.093753 0.077869 0.010026
v -0.073839 0.055823 0.007837
v -0.077995 0.060423 0.007622
v -0.092203 0.076153 0.009505
v -0.073169 0.055081 0.007837
v -0.077521 0.059899 0.007837
v -0.091291 0.075143 0.008196
v -0.072695 0.054556 0.007622
v -0.076814 0.059116 0.007837
v -0.089852 0.073551 0.008196
v -0.072499 0.054337 0.007103
v -0.076202 0.058439 0.008606
v -0.089852 0.073551 0.006023
v -0.096214 0.080593 0.008196
v -0.072597 0.054337 0.006023
v -0.075326 0.057469 0.008807
v -0.078191 0.060641 0.006023
v -0.095302 0.079584 0.009505
v -0.075326 0.000000 0.008807
v -0.078191 0.000000 0.006023
v -0.095302 0.000000 0.009505
v 0.097370 -0.081873 0.008196
v 0.065188 -0.046246 0.005272
v 0.065188 -0.046246 0.004165
v 0.097370 -0.081873 0.000000
v 0.000000 -0.081873 0.000000
v 0.000000 -0.081873 0.008196
v 0.000000 -0.080593 0.008196
v 0.000000 -0.079584 0.009505
v 0.000000 -0.077869 0.010026
v 0.000000 -0.076153 0.009505
v 0.000000 -0.075143 0.008196
v 0.000000 -0.073551 0.008196
v 0.000000 -0.073551 0.006023
v 0.000000 -0.060641 0.006023
v 0.000000 -0.060641 0.007103
v 0.000000 -0.060423 0.007622
v 0.000000 -0.059899 0.007837
v 0.000000 -0.059116 0.007837
v 0.000000 -0.058439 0.008606
v 0.000000 -0.057469 0.008807
v 0.000000 -0.056500 0.008606
v 0.000000 -0.055823 0.007837
v 0.000000 -0.055081 0.007837
v 0.000000 -0.054556 0.007622
v 0.000000 -0.054337 0.007103
v 0.000000 -0.054337 0.006023
v 0.000000 -0.046246 0.005272
v 0.000000 -0.046246 0.004165
v 0.074450 -0.056500 0.008606
v 0.078191 -0.060641 0.007103
v 0.093753 -0.077869 0.010026
v 0.073839 -0.055823 0.007837
v 0.077995 -0.060423 0.007622
v 0.092203 -0.076153 0.009505
v 0.073169 -0.055081 0.007837
v 0.077521 -0.059899 0.007837
v 0.091291 -0.075143 0.008196
v 0.072695 -0.054556 0.007622
v 0.076814 -0.059116 0.007837
v 0.089852 -0.073551 0.008196
v 0.072499 -0.054337 0.007103
v 0.076202 -0.058439 0.008606
v 0.089852 -0.073551 0.006023
v 0.096214 -0.080593 0.008196
v 0.072597 -0.054337 0.006023
v 0.075326 -0.057469 0.008807
v 0.078191 -0.060641 0.006023
v 0.095302 -0.079584 0.009505
v -0.097370 -0.081873 0.008196
v -0.065188 -0.046246 0.005272
v -0.065188 -0.046246 0.004165
v -0.097370 -0.081873 0.000000
v -0.074450 -0.056500 0.008606
v -0.078191 -0.060641 0.007103
v -0.093753 -0.077869 0.010026
v -0.073839 -0.055823 0.007837
v -0.077995 -0.060423 0.007622
v -0.092203 -0.076153 0.009505
v -0.073169 -0.055081 0.007837
v -0.077521 -0.059899 0.007837
v -0.091291 -0.075143 0.008196
v -0.072695 -0.054556 0.007622
v -0.076814 -0.059116 0.007837
v -0.089852 -0.073551 0.008196
v -0.072499 -0.054337 0.007103
v -0.076202 -0.058439 0.008606
v -0.089852 -0.073551 0.006023
v -0.096214 -0.080593 0.008196
v -0.072597 -0.054337 0.006023
v -0.075326 -0.057469 0.008807
v -0.078191 -0.060641 0.006023
v -0.095302 -0.079584 0.009505
vt 0.361724 0.970842
vt 0.359690 0.973805
vt 0.191545 0.974135
vt 0.191545 0.971175
vt 0.594831 0.795730
vt 0.389542 0.795122
vt 0.386384 0.791534
vt 0.594831 0.792148
vt 0.594831 0.806190
vt 0.397821 0.805590
vt 0.394727 0.802150
vt 0.594831 0.802752
vt 0.594831 0.799259
vt 0.392652 0.798655
vt 0.786849 0.011027
vt 0.792247 0.014440
vt 0.792307 0.283687
vt 0.786910 0.283687
vt 0.334425 0.559041
vt 0.649700 0.559138
vt 0.654909 0.565170
vt 0.334425 0.565072
vt 0.334425 0.553011
vt 0.644489 0.553106
vt 0.373745 0.958627
vt 0.370299 0.961749
vt 0.191545 0.962096
vt 0.191545 0.958976
vt 0.674725 0.910670
vt 0.516414 0.910669
vt 0.516414 0.906878
vt 0.674725 0.906879
vt 0.334642 0.472756
vt 0.334642 0.238819
vt 0.664399 0.238819
vt 0.664399 0.472756
vt 0.594831 0.809579
vt 0.400642 0.808978
vt 0.378201 0.948893
vt 0.378208 0.952220
vt 0.191545 0.952560
vt 0.191545 0.949233
vt 0.594831 0.781100
vt 0.377806 0.780486
vt 0.376487 0.776706
vt 0.594831 0.777312
vt 0.334425 0.570665
vt 0.657993 0.570765
vt 0.663098 0.576414
vt 0.334425 0.576313
vt 0.334425 0.542096
vt 0.334425 0.534788
vt 0.636591 0.534880
vt 0.636589 0.542188
vt 0.674164 0.313329
vt 0.718357 0.313329
vt 0.718357 0.580986
vt 0.674164 0.620905
vt 0.594831 0.788510
vt 0.384222 0.787894
vt 0.380914 0.784216
vt 0.594831 0.784834
vt 0.813580 0.034848
vt 0.820933 0.034847
vt 0.820988 0.283687
vt 0.813636 0.283687
vt 0.808712 0.029461
vt 0.808769 0.283687
vt 0.488715 0.936163
vt 0.674725 0.936163
vt 0.376941 0.955450
vt 0.191545 0.955796
vt 0.625308 0.864850
vt 0.625308 0.892624
vt 0.402504 0.892649
vt 0.377177 0.864878
vt 0.625308 0.896513
vt 0.402504 0.896538
vt 0.376490 0.772895
vt 0.594831 0.773501
vt 0.945193 0.671502
vt 0.917138 0.671502
vt 0.917138 0.338195
vt 0.945194 0.338195
vt 0.368180 0.964836
vt 0.191545 0.965179
vt 0.376490 0.762943
vt 0.376490 0.734887
vt 0.656763 0.734887
vt 0.656763 0.762943
vt 0.797780 0.020243
vt 0.797839 0.283687
vt 0.401491 0.815708
vt 0.401813 0.812340
vt 0.594831 0.812948
vt 0.594831 0.816317
vt 0.352559 0.982320
vt 0.352565 0.985536
vt 0.191545 0.985870
vt 0.191545 0.982654
vt 0.356511 0.976685
vt 0.353666 0.979514
vt 0.191545 0.979843
vt 0.191545 0.977014
vt 0.364922 0.967866
vt 0.191545 0.968205
vt 0.641424 0.547545
vt 0.334425 0.547452
vt 0.803314 0.026047
vt 0.803371 0.283687
vt 0.954968 0.005765
vt 0.994885 0.049957
vt 0.994885 0.257530
vt 0.954967 0.257530
vt 0.782089 0.005757
vt 0.782151 0.283687
vt 0.004882 0.891127
vt 0.004882 0.739003
vt 0.185801 0.739003
vt 0.185801 0.891127
vt 0.969978 0.511372
vt 0.969644 0.681554
vt 0.966685 0.681554
vt 0.967014 0.513406
vt 0.803277 0.791534
vt 0.800119 0.795122
vt 0.794934 0.802150
vt 0.791840 0.805590
vt 0.797009 0.798655
vt 0.835461 0.556356
vt 0.835522 0.283697
vt 0.840919 0.283697
vt 0.840859 0.552943
vt 0.013940 0.565170
vt 0.019150 0.559138
vt 0.024360 0.553106
vt 0.982192 0.499351
vt 0.981844 0.681554
vt 0.978724 0.681554
vt 0.979071 0.502796
vt 0.644719 0.950673
vt 0.644719 0.946881
vt 0.803025 0.946881
vt 0.803025 0.950673
vt 0.004885 0.472756
vt 0.004885 0.238819
vt 0.789019 0.808978
vt 0.991927 0.494894
vt 0.991587 0.681554
vt 0.988260 0.681554
vt 0.988600 0.494888
vt 0.813174 0.776706
vt 0.811855 0.780486
vt 0.005752 0.576414
vt 0.010857 0.570765
vt 0.032261 0.542188
vt 0.032259 0.534880
vt 0.674164 0.005752
vt 0.718357 0.045671
vt 0.808747 0.784216
vt 0.805439 0.787894
vt 0.862193 0.532535
vt 0.862248 0.283697
vt 0.869600 0.283696
vt 0.869545 0.532536
vt 0.857325 0.537922
vt 0.857381 0.283697
vt 0.830723 0.976165
vt 0.644718 0.976165
vt 0.985024 0.681554
vt 0.985370 0.496154
vt 0.873438 0.864878
vt 0.848111 0.892649
vt 0.848112 0.896538
vt 0.813171 0.772895
vt 0.945194 0.004886
vt 0.917138 0.004886
vt 0.975641 0.681554
vt 0.975984 0.504915
vt 0.376491 0.826878
vt 0.656765 0.826878
vt 0.656765 0.854935
vt 0.376491 0.854935
vt 0.846450 0.283697
vt 0.846391 0.547141
vt 0.788170 0.815709
vt 0.787848 0.812340
vt 0.958499 0.520538
vt 0.958166 0.681554
vt 0.954950 0.681554
vt 0.955282 0.520531
vt 0.964133 0.516586
vt 0.963806 0.681554
vt 0.960976 0.681554
vt 0.961305 0.519431
vt 0.972953 0.508174
vt 0.972615 0.681554
vt 0.027425 0.547546
vt 0.851983 0.283697
vt 0.851925 0.541336
vt 0.377274 0.684887
vt 0.629038 0.684887
vt 0.629038 0.724804
vt 0.421465 0.724804
vt 0.830701 0.561626
vt 0.830763 0.283697
vt 0.366719 0.891127
vt 0.366719 0.739003
vt 0.021365 0.970842
vt 0.023398 0.973806
vt 0.594826 0.653732
vt 0.594826 0.650148
vt 0.803272 0.649534
vt 0.800114 0.653122
vt 0.594826 0.664191
vt 0.594826 0.660753
vt 0.794929 0.660151
vt 0.791835 0.663591
vt 0.594826 0.657260
vt 0.797004 0.656656
vt 0.786849 0.556346
vt 0.792247 0.552934
vt 0.334471 0.507051
vt 0.334471 0.513082
vt 0.013943 0.513180
vt 0.019153 0.507148
vt 0.334471 0.501020
vt 0.024364 0.501115
vt 0.009343 0.958628
vt 0.012789 0.961749
vt 0.833034 0.906879
vt 0.833034 0.910670
vt 0.334642 0.004883
vt 0.664399 0.004883
vt 0.594826 0.667581
vt 0.789014 0.666979
vt 0.004886 0.948893
vt 0.004881 0.952220
vt 0.594826 0.639101
vt 0.594826 0.635313
vt 0.813169 0.634707
vt 0.811850 0.638487
vt 0.334471 0.518677
vt 0.334471 0.524325
vt 0.005753 0.524426
vt 0.010859 0.518776
vt 0.334471 0.490103
vt 0.032266 0.490196
vt 0.032264 0.482886
vt 0.334471 0.482794
vt 0.728129 0.313329
vt 0.728129 0.005752
vt 0.772322 0.045671
vt 0.772322 0.313329
vt 0.594826 0.646510
vt 0.594826 0.642835
vt 0.808742 0.642217
vt 0.805434 0.645894
vt 0.813580 0.532525
vt 0.820933 0.532527
vt 0.808712 0.537912
vt 0.860732 0.936163
vt 0.006146 0.955450
vt 0.253858 0.906855
vt 0.501963 0.906884
vt 0.476639 0.934652
vt 0.253858 0.934626
vt 0.476639 0.938541
vt 0.253858 0.938515
vt 0.594826 0.631502
vt 0.813166 0.630896
vt 0.879313 0.671536
vt 0.879313 0.338209
vt 0.907369 0.338209
vt 0.907369 0.671536
vt 0.014907 0.964836
vt 0.937034 0.762943
vt 0.937034 0.734887
vt 0.797779 0.547131
vt 0.788165 0.673709
vt 0.594826 0.674318
vt 0.594826 0.670949
vt 0.787843 0.670341
vt 0.030530 0.982321
vt 0.030524 0.985538
vt 0.026578 0.976687
vt 0.029423 0.979515
vt 0.018166 0.967867
vt 0.027429 0.495554
vt 0.334471 0.495460
vt 0.803313 0.541327
vt 0.954967 0.509294
vt 0.994885 0.465103
vt 0.782089 0.561617
vt 0.004882 0.586878
vt 0.185801 0.586878
vt 0.969979 0.851732
vt 0.967016 0.849699
vt 0.389538 0.653122
vt 0.386380 0.649534
vt 0.397818 0.663591
vt 0.394723 0.660151
vt 0.392648 0.656656
vt 0.835461 0.011037
vt 0.840859 0.014450
vt 0.649790 0.507148
vt 0.655001 0.513180
vt 0.644579 0.501115
vt 0.982193 0.863753
vt 0.979071 0.860308
vt 0.486409 0.950672
vt 0.486409 0.946881
vt 0.004885 0.004883
vt 0.400639 0.666979
vt 0.991927 0.868210
vt 0.988600 0.868216
vt 0.377802 0.638487
vt 0.376483 0.634707
vt 0.658084 0.518776
vt 0.663190 0.524426
vt 0.636679 0.482886
vt 0.636677 0.490196
vt 0.772322 0.580986
vt 0.728129 0.620905
vt 0.384218 0.645894
vt 0.380910 0.642217
vt 0.862193 0.034858
vt 0.869545 0.034856
vt 0.857325 0.029471
vt 0.458711 0.976165
vt 0.985370 0.866950
vt 0.031077 0.934652
vt 0.005753 0.906883
vt 0.031076 0.938540
vt 0.376487 0.630896
vt 0.879313 0.004886
vt 0.907369 0.004886
vt 0.975984 0.858189
vt 0.937041 0.826878
vt 0.937041 0.854935
vt 0.846392 0.020253
vt 0.401487 0.673709
vt 0.401809 0.670341
vt 0.958500 0.842567
vt 0.955284 0.842574
vt 0.964135 0.846520
vt 0.961306 0.843675
vt 0.972954 0.854931
vt 0.641514 0.495553
vt 0.851926 0.026057
vt 0.880802 0.684887
vt 0.836611 0.724804
vt 0.830701 0.005766
vt 0.366719 0.586878
vn -0.7826 0.0000 0.6225
vn 0.0000 0.0000 1.0000
vn 0.0599 0.0478 0.9971
vn 0.1062 0.1091 0.9883
vn 0.0000 0.2031 0.9792
vn 0.0000 -0.1932 0.9812
vn -0.0516 -0.0530 0.9973
vn 0.0000 -0.2031 0.9792
vn -0.1156 -0.1005 0.9882
vn 0.8207 0.0000 0.5714
vn 0.0000 0.2907 0.9568
vn 0.1666 0.1458 0.9752
vn 0.1535 0.1577 0.9755
vn 0.0000 -0.2907 0.9568
vn -0.1666 -0.1458 0.9752
vn -0.1535 -0.1577 0.9755
vn 0.1636 0.1442 0.9759
vn 0.2114 -0.0000 0.9774
vn -1.0000 0.0000 0.0000
vn 0.0000 -0.3791 0.9253
vn 1.0000 0.0000 0.0000
vn 0.9878 0.0000 0.1555
vn 0.9837 0.0000 0.1797
vn -0.0000 0.9225 0.3860
vn 0.0000 0.9849 0.1733
vn -0.0000 0.9804 0.1969
vn 0.0000 -1.0000 0.0000
vn 0.0000 0.1933 0.9811
vn -0.0477 -0.0488 0.9977
vn -0.0514 -0.0454 0.9976
vn -0.1007 0.0000 0.9949
vn 0.9354 0.0000 0.3536
vn 0.0000 -0.0923 0.9957
vn 0.0000 1.0000 0.0000
vn 0.7827 0.0000 0.6224
vn 0.0000 -0.7505 0.6608
vn 0.3188 0.0000 0.9478
vn 0.0000 0.3793 0.9253
vn 0.0000 -0.9773 0.2120
vn 0.0000 -0.9801 0.1984
vn -0.9872 0.0000 0.1592
vn -0.9959 0.0000 -0.0908
vn -0.9909 0.0000 0.1349
vn -0.4131 0.0000 0.9107
vn -0.2113 0.0000 0.9774
vn 0.0000 0.7920 0.6105
vn -0.2238 0.0000 0.9746
vn 0.0000 -0.7919 0.6106
vn 0.4133 0.0000 0.9106
vn -0.3188 0.0000 0.9478
vn 0.2238 0.0000 0.9746
vn -0.8206 0.0000 0.5715
vn 0.0000 0.7506 0.6607
vn 0.0000 -0.9213 0.3889
vn -0.9354 0.0000 0.3537
vn -0.0000 0.0000 -1.0000
vn 0.7826 0.0000 0.6225
vn -0.1062 0.1091 0.9883
vn -0.0599 0.0478 0.9971
vn 0.0516 -0.0530 0.9973
vn 0.1156 -0.1005 0.9882
vn -0.8207 0.0000 0.5714
vn -0.1535 0.1577 0.9755
vn -0.1666 0.1458 0.9752
vn 0.1535 -0.1577 0.9755
vn 0.1666 -0.1458 0.9752
vn -0.1636 0.1442 0.9759
vn -0.2114 0.0000 0.9774
vn -0.9837 0.0000 0.1797
vn -0.9878 0.0000 0.1555
vn 0.0477 -0.0488 0.9977
vn 0.1007 -0.0000 0.9949
vn 0.0514 -0.0454 0.9976
vn -0.9354 0.0000 0.3536
vn -0.7827 0.0000 0.6224
vn 0.9872 0.0000 0.1592
vn 0.9909 0.0000 0.1349
vn 0.9959 0.0000 -0.0908
vn 0.2113 0.0000 0.9774
vn 0.4131 0.0000 0.9107
vn -0.4133 0.0000 0.9106
vn 0.8206 0.0000 0.5715
vn 0.9354 0.0000 0.3537
vn 0.1062 -0.1091 0.9883
vn 0.0599 -0.0478 0.9971
vn 0.0000 0.1932 0.9812
vn -0.0516 0.0530 0.9973
vn -0.1156 0.1005 0.9882
vn 0.1636 -0.1442 0.9759
vn 0.0000 0.3791 0.9253
vn 0.0000 -0.9225 0.3860
vn 0.0000 -0.9804 0.1969
vn 0.0000 -0.9849 0.1733
vn -0.0000 -0.1933 0.9811
vn -0.0477 0.0488 0.9977
vn -0.0514 0.0454 0.9976
vn -0.0000 0.0923 0.9957
vn 0.0000 0.7505 0.6608
vn 0.0000 -0.3793 0.9253
vn 0.0000 0.9801 0.1984
vn 0.0000 0.9773 0.2120
vn 0.0000 -0.7920 0.6105
vn 0.0000 0.7919 0.6106
vn 0.0000 -0.7506 0.6607
vn 0.0000 0.9213 0.3889
vn -0.0599 -0.0478 0.9971
vn -0.1062 -0.1091 0.9883
vn 0.0516 0.0530 0.9973
vn 0.1156 0.1005 0.9882
vn -0.1636 -0.1442 0.9759
vn 0.0477 0.0488 0.9977
vn 0.0514 0.0454 0.9976
s 1
f 51/1/1 54/2/1 17/3/1 20/4/1
f 41/5/2 68/6/3 64/7/4 40/8/5
f 44/9/6 57/10/7 54/11/2 43/12/2
f 42/13/8 51/14/9 68/6/3 41/5/2
f 66/15/10 70/16/10 73/17/10 5/18/10
f 30/19/11 53/20/12 70/21/13 29/22/11
f 31/23/14 56/24/15 53/20/16 30/19/14
f 58/25/17 61/26/2 10/27/2 13/28/18
f 1/29/19 23/30/19 24/31/19 2/32/19
f 49/33/2 50/34/2 2/35/2 24/36/2
f 45/37/20 60/38/20 57/10/7 44/9/6
f 69/39/21 52/40/22 19/41/23 72/42/21
f 37/43/24 55/44/24 52/45/25 36/46/26
f 28/47/2 66/48/2 4/49/2 27/50/2
f 33/51/27 34/52/27 65/53/27 62/54/27
f 34/55/2 35/56/2 69/57/2 65/58/2
f 39/59/2 61/60/2 58/61/17 38/62/28
f 62/63/19 65/64/19 6/65/19 9/66/19
f 59/67/2 62/63/2 9/66/2 12/68/2
f 67/69/29 23/30/30 1/29/31 3/70/31
f 52/40/22 55/71/32 16/72/32 19/41/23
f 47/73/33 48/74/33 23/75/30 67/76/29
f 48/74/27 49/77/27 24/78/27 23/75/27
f 36/46/26 52/45/25 69/79/34 35/80/34
f 4/81/34 25/82/34 26/83/34 27/84/34
f 61/26/35 64/85/35 7/86/35 10/27/35
f 54/11/36 51/14/36 42/13/36 43/12/36
f 25/87/21 4/88/21 22/89/21 21/90/21
f 70/16/13 53/91/12 18/92/37 73/17/37
f 58/61/17 55/44/38 37/43/38 38/62/28
f 67/93/27 63/94/39 46/95/40 47/96/27
f 63/97/41 67/98/42 3/99/42 8/100/43
f 57/101/7 60/102/44 11/103/44 14/104/45
f 70/21/46 66/48/46 28/47/46 29/22/46
f 68/105/3 51/1/9 20/4/47 71/106/2
f 59/107/48 56/24/48 31/23/48 32/108/48
f 55/71/49 58/25/17 13/28/18 16/72/49
f 53/91/16 56/109/15 15/110/50 18/92/50
f 64/85/4 68/105/3 71/106/2 7/86/51
f 65/111/2 69/112/2 72/113/2 6/114/2
f 56/109/52 59/67/52 12/68/52 15/110/52
f 64/7/53 61/60/53 39/59/53 40/8/53
f 63/94/39 60/38/54 45/37/54 46/95/40
f 60/102/55 63/97/41 8/100/43 11/103/55
f 4/115/2 66/15/2 5/18/2 22/116/2
f 54/2/2 57/101/7 14/104/45 17/3/2
f 62/54/2 59/107/2 32/108/2 33/51/2
f 25/117/56 21/118/56 74/119/56 26/120/56
f 100/121/57 94/122/57 91/123/57 103/124/57
f 41/5/2 40/8/5 113/125/58 117/126/59
f 44/9/6 43/12/2 103/127/2 106/128/60
f 42/13/8 41/5/2 117/126/59 100/129/61
f 115/130/62 79/131/62 122/132/62 119/133/62
f 30/19/11 29/22/11 119/134/63 102/135/64
f 31/23/14 30/19/14 102/135/65 105/136/66
f 107/137/67 87/138/68 84/139/2 110/140/2
f 75/141/21 76/142/21 98/143/21 97/144/21
f 49/33/2 98/145/2 76/146/2 50/34/2
f 45/37/20 44/9/6 106/128/60 109/147/20
f 118/148/19 121/149/19 93/150/69 101/151/70
f 37/43/24 36/46/26 101/152/25 104/153/24
f 28/47/2 27/50/2 78/154/2 115/155/2
f 33/51/27 111/156/27 114/157/27 34/52/27
f 34/55/2 114/158/2 118/159/2 35/56/2
f 39/59/2 38/62/28 107/160/67 110/161/2
f 111/162/21 83/163/21 80/164/21 114/165/21
f 108/166/2 86/167/2 83/163/2 111/162/2
f 116/168/71 77/169/72 75/141/72 97/144/73
f 101/151/70 93/150/69 90/170/74 104/171/74
f 47/73/33 116/172/71 97/173/73 48/74/33
f 48/74/27 97/173/27 98/174/27 49/77/27
f 36/46/26 35/80/34 118/175/34 101/152/25
f 78/176/34 27/84/34 26/83/34 99/177/34
f 110/140/75 84/139/75 81/178/75 113/179/75
f 103/127/36 43/12/36 42/13/36 100/129/36
f 99/180/19 95/181/19 96/182/19 78/183/19
f 119/133/63 122/132/50 92/184/50 102/185/64
f 107/160/67 38/62/28 37/43/38 104/153/38
f 116/186/27 47/96/27 46/95/40 112/187/39
f 112/188/76 82/189/77 77/190/78 116/191/78
f 106/192/60 88/193/79 85/194/80 109/195/80
f 119/134/46 29/22/46 28/47/46 115/155/46
f 117/196/59 120/197/2 94/122/51 100/121/61
f 108/198/48 32/108/48 31/23/48 105/136/48
f 104/171/81 90/170/81 87/138/68 107/137/67
f 102/185/65 92/184/37 89/199/37 105/200/66
f 113/179/58 81/178/47 120/197/2 117/196/59
f 114/201/2 80/202/2 121/203/2 118/204/2
f 105/200/82 89/199/82 86/167/82 108/166/82
f 113/125/53 40/8/53 39/59/53 110/161/53
f 112/187/39 46/95/40 45/37/54 109/147/54
f 109/195/83 85/194/83 82/189/77 112/188/76
f 78/205/2 96/206/2 79/131/2 115/130/2
f 103/124/2 91/123/2 88/193/79 106/192/60
f 111/156/2 33/51/2 32/108/2 108/198/2
f 99/207/56 26/120/56 74/119/56 95/208/56
f 151/209/1 20/4/1 17/3/1 154/210/1
f 142/211/2 141/212/8 164/213/84 168/214/85
f 145/215/86 144/216/2 154/217/2 157/218/87
f 143/219/5 142/211/2 168/214/85 151/220/88
f 166/221/10 5/18/10 73/17/10 170/222/10
f 131/223/14 130/224/14 170/225/65 153/226/66
f 132/227/11 131/223/11 153/226/63 156/228/64
f 158/229/89 13/28/18 10/27/2 161/230/2
f 1/29/19 2/32/19 125/231/19 124/232/19
f 150/233/2 125/234/2 2/35/2 50/34/2
f 146/235/90 145/215/86 157/218/87 160/236/90
f 169/237/21 72/42/21 19/41/23 152/238/22
f 138/239/91 137/240/92 152/241/93 155/242/91
f 129/243/2 128/244/2 123/245/2 166/246/2
f 134/247/34 162/248/34 165/249/34 135/250/34
f 135/251/2 165/252/2 169/253/2 136/254/2
f 140/255/2 139/256/94 158/257/89 161/258/2
f 162/259/19 9/66/19 6/65/19 165/260/19
f 159/261/2 12/68/2 9/66/2 162/259/2
f 167/262/95 3/70/31 1/29/31 124/232/96
f 152/238/22 19/41/23 16/72/32 155/263/32
f 148/264/97 167/265/95 124/266/96 149/267/97
f 149/267/34 124/266/34 125/268/34 150/269/34
f 137/240/92 136/270/27 169/271/27 152/241/93
f 123/272/27 128/273/27 127/274/27 126/275/27
f 161/230/35 10/27/35 7/86/35 164/276/35
f 154/217/98 144/216/98 143/219/98 151/220/98
f 126/277/21 21/90/21 22/89/21 123/278/21
f 170/222/65 73/17/37 18/92/37 153/279/66
f 158/257/89 139/256/94 138/239/99 155/242/99
f 167/280/34 148/281/34 147/282/100 163/283/101
f 163/284/41 8/100/43 3/99/42 167/285/42
f 157/286/87 14/104/45 11/103/44 160/287/44
f 170/225/102 130/224/102 129/243/102 166/246/102
f 168/288/85 71/106/2 20/4/47 151/209/88
f 159/289/103 133/290/103 132/227/103 156/228/103
f 155/263/49 16/72/49 13/28/18 158/229/89
f 153/279/63 18/92/50 15/110/50 156/291/64
f 164/276/84 7/86/51 71/106/2 168/288/85
f 165/292/2 6/114/2 72/113/2 169/293/2
f 156/291/52 15/110/52 12/68/52 159/261/52
f 164/213/104 141/212/104 140/255/104 161/258/104
f 163/283/101 147/282/100 146/235/105 160/236/105
f 160/287/55 11/103/55 8/100/43 163/284/41
f 123/294/2 22/116/2 5/18/2 166/221/2
f 154/210/2 17/3/2 14/104/45 157/286/87
f 162/248/2 134/247/2 133/290/2 159/289/2
f 126/295/56 127/296/56 74/119/56 21/118/56
f 175/297/57 178/298/57 91/123/57 94/122/57
f 142/211/2 192/299/106 188/300/107 141/212/8
f 145/215/86 181/301/108 178/302/2 144/216/2
f 143/219/5 175/303/109 192/299/106 142/211/2
f 190/304/62 194/305/62 122/132/62 79/131/62
f 131/223/14 177/306/15 194/307/16 130/224/14
f 132/227/11 180/308/12 177/306/13 131/223/11
f 182/309/110 185/310/2 84/139/2 87/138/68
f 75/141/21 172/311/21 173/312/21 76/142/21
f 150/233/2 50/34/2 76/146/2 173/313/2
f 146/235/90 184/314/90 181/301/108 145/215/86
f 193/315/19 176/316/70 93/150/69 121/149/19
f 138/239/91 179/317/91 176/318/93 137/240/92
f 129/243/2 190/319/2 171/320/2 128/244/2
f 134/247/34 135/250/34 189/321/34 186/322/34
f 135/251/2 136/254/2 193/323/2 189/324/2
f 140/255/2 185/325/2 182/326/110 139/256/94
f 186/327/21 189/328/21 80/164/21 83/163/21
f 183/329/2 186/327/2 83/163/2 86/167/2
f 191/330/111 172/311/112 75/141/72 77/169/72
f 176/316/70 179/331/74 90/170/74 93/150/69
f 148/264/97 149/267/97 172/332/112 191/333/111
f 149/267/34 150/269/34 173/334/34 172/332/34
f 137/240/92 176/318/93 193/335/27 136/270/27
f 171/336/27 174/337/27 127/274/27 128/273/27
f 185/310/75 188/338/75 81/178/75 84/139/75
f 178/302/98 175/303/98 143/219/98 144/216/98
f 174/339/19 171/340/19 96/182/19 95/181/19
f 194/305/16 177/341/15 92/184/50 122/132/50
f 182/326/110 179/317/99 138/239/99 139/256/94
f 191/342/34 187/343/101 147/282/100 148/281/34
f 187/344/76 191/345/78 77/190/78 82/189/77
f 181/346/108 184/347/80 85/194/80 88/193/79
f 194/307/102 190/319/102 129/243/102 130/224/102
f 192/348/106 175/297/109 94/122/51 120/197/2
f 183/349/103 180/308/103 132/227/103 133/290/103
f 179/331/81 182/309/110 87/138/68 90/170/81
f 177/341/13 180/350/12 89/199/37 92/184/37
f 188/338/107 192/348/106 120/197/2 81/178/47
f 189/351/2 193/352/2 121/203/2 80/202/2
f 180/350/82 183/329/82 86/167/82 89/199/82
f 188/300/104 185/325/104 140/255/104 141/212/104
f 187/343/101 184/314/105 146/235/105 147/282/100
f 184/347/83 187/344/76 82/189/77 85/194/83
f 171/353/2 190/304/2 79/131/2 96/206/2
f 178/298/2 181/346/108 88/193/79 91/123/2
f 186/322/2 183/349/2 133/290/2 134/247/2
f 174/354/56 95/208/56 74/119/56 127/296/56
