# Blender v3.1.2 OBJ File: 'x.blend'
# www.blender.org
o x
v 0.075024 -0.150047 0.025000
v -0.000000 -0.075024 0.025000
v 0.150047 -0.075024 0.025000
v -0.150047 0.075024 0.025000
v -0.075024 0.150047 0.025000
v -0.075024 -0.150047 0.025000
v -0.150047 -0.075024 0.025000
v -0.075024 0.000000 0.025000
v 0.075024 -0.000000 0.025000
v 0.000000 0.075024 0.025000
v 0.150047 0.075024 0.025000
v 0.075024 0.150047 0.025000
v 0.075024 -0.150047 -0.025000
v -0.000000 -0.075024 -0.025000
v 0.150047 -0.075024 -0.025000
v -0.150047 0.075024 -0.025000
v -0.075024 0.150047 -0.025000
v -0.075024 -0.150047 -0.025000
v -0.150047 -0.075024 -0.025000
v -0.075024 0.000000 -0.025000
v 0.075024 -0.000000 -0.025000
v 0.000000 0.075024 -0.025000
v 0.150047 0.075024 -0.025000
v 0.075024 0.150047 -0.025000
vt 0.331216 0.993650
vt 0.168783 0.993650
vt 0.168784 0.831217
vt 0.331217 0.831217
vt 0.168784 0.668784
vt 0.331216 0.668783
vt 0.168784 0.506350
vt 0.331217 0.506350
vt 0.493650 0.831217
vt 0.493650 0.668784
vt 0.006350 0.831217
vt 0.006350 0.668784
vt 0.331216 0.006350
vt 0.331216 0.168783
vt 0.168783 0.168784
vt 0.168783 0.006350
vt 0.331217 0.331217
vt 0.168783 0.331217
vt 0.331217 0.493650
vt 0.168783 0.493650
vt 0.493650 0.168783
vt 0.493650 0.331217
vt 0.006350 0.331217
vt 0.006350 0.168784
vt 0.599753 0.831928
vt 0.599753 0.669496
vt 0.679677 0.669496
vt 0.679677 0.831928
vt 0.586275 0.331216
vt 0.586275 0.493650
vt 0.506350 0.493650
vt 0.506350 0.331217
vt 0.599753 0.994361
vt 0.679677 0.994361
vt 0.678900 0.168783
vt 0.678900 0.331216
vt 0.598976 0.331216
vt 0.598976 0.168783
vt 0.507128 0.994361
vt 0.507128 0.831928
vt 0.587052 0.831928
vt 0.587052 0.994361
vt 0.507128 0.669496
vt 0.507128 0.507064
vt 0.587052 0.507064
vt 0.587052 0.669496
vt 0.586275 0.006350
vt 0.586275 0.168783
vt 0.506350 0.168783
vt 0.506350 0.006350
vt 0.599753 0.507064
vt 0.679677 0.507064
vt 0.678900 0.493650
vt 0.598976 0.493650
vt 0.678900 0.006350
vt 0.598976 0.006350
vn 0.0000 0.0000 1.0000
vn 0.0000 0.0000 -1.0000
vn -0.7071 0.7071 0.0000
vn 0.7071 -0.7071 0.0000
vn -0.7071 -0.7071 0.0000
vn 0.7071 0.7071 0.0000
s off
f 1/1/1 3/2/1 9/3/1 2/4/1
f 2/4/1 9/3/1 10/5/1 8/6/1
f 8/6/1 10/5/1 5/7/1 4/8/1
f 6/9/1 2/4/1 8/6/1 7/10/1
f 9/3/1 11/11/1 12/12/1 10/5/1
f 13/13/2 14/14/2 21/15/2 15/16/2
f 14/14/2 20/17/2 22/18/2 21/15/2
f 20/17/2 16/19/2 17/20/2 22/18/2
f 18/21/2 19/22/2 20/17/2 14/14/2
f 21/15/2 22/18/2 24/23/2 23/24/2
f 4/25/3 5/26/3 17/27/3 16/28/3
f 11/29/4 9/30/4 21/31/4 23/32/4
f 8/33/5 4/25/5 16/28/5 20/34/5
f 6/35/5 7/36/5 19/37/5 18/38/5
f 9/39/6 3/40/6 15/41/6 21/42/6
f 1/43/5 2/44/5 14/45/5 13/46/5
f 10/47/3 12/48/3 24/49/3 22/50/3
f 5/26/6 10/51/6 22/52/6 17/27/6
f 7/36/3 8/53/3 20/54/3 19/37/3
f 3/40/4 1/43/4 13/46/4 15/41/4
f 12/48/6 11/29/6 23/32/6 24/49/6
f 2/55/4 6/35/4 18/38/4 14/56/4
